<mxfile host="app.diagrams.net" modified="2024-01-13T14:52:46.552Z" agent="Mozilla/5.0 (Windows NT 10.0; Win64; x64) AppleWebKit/537.36 (KHTML, like Gecko) Chrome/120.0.0.0 Safari/537.36" etag="RxykZ9fqYZRId2AxzRGD" version="22.1.18" type="device">
  <diagram name="Page-1" id="NqnncLKXADFn-ES1hXPr">
    <mxGraphModel dx="1195" dy="701" grid="1" gridSize="10" guides="1" tooltips="1" connect="1" arrows="1" fold="1" page="1" pageScale="1" pageWidth="827" pageHeight="1169" math="0" shadow="0">
      <root>
        <mxCell id="0" />
        <mxCell id="1" parent="0" />
        <mxCell id="PjXq0stKhjiPxpjEcOcD-1" value="" style="rounded=0;whiteSpace=wrap;html=1;fillColor=#dae8fc;strokeColor=#6c8ebf;" vertex="1" parent="1">
          <mxGeometry x="470" y="90" width="230" height="340" as="geometry" />
        </mxCell>
        <mxCell id="PjXq0stKhjiPxpjEcOcD-8" value="" style="rounded=1;whiteSpace=wrap;html=1;fillColor=none;dashed=1;" vertex="1" parent="1">
          <mxGeometry x="480" y="360" width="210" height="50" as="geometry" />
        </mxCell>
        <mxCell id="PjXq0stKhjiPxpjEcOcD-2" value="&lt;font style=&quot;font-size: 14px;&quot;&gt;Backend&lt;/font&gt;" style="text;html=1;strokeColor=none;fillColor=none;align=center;verticalAlign=middle;whiteSpace=wrap;rounded=0;" vertex="1" parent="1">
          <mxGeometry x="555" y="90" width="60" height="30" as="geometry" />
        </mxCell>
        <mxCell id="PjXq0stKhjiPxpjEcOcD-3" value="" style="rounded=0;whiteSpace=wrap;html=1;fillColor=#ffe6cc;strokeColor=#d79b00;" vertex="1" parent="1">
          <mxGeometry x="70" y="90" width="230" height="340" as="geometry" />
        </mxCell>
        <mxCell id="PjXq0stKhjiPxpjEcOcD-4" value="&lt;font style=&quot;font-size: 14px;&quot;&gt;Frontend&lt;/font&gt;" style="text;html=1;strokeColor=none;fillColor=none;align=center;verticalAlign=middle;whiteSpace=wrap;rounded=0;" vertex="1" parent="1">
          <mxGeometry x="155" y="90" width="60" height="30" as="geometry" />
        </mxCell>
        <mxCell id="PjXq0stKhjiPxpjEcOcD-5" value="" style="shape=image;html=1;verticalAlign=top;verticalLabelPosition=bottom;labelBackgroundColor=#ffffff;imageAspect=0;aspect=fixed;image=https://cdn1.iconfinder.com/data/icons/unicons-line-vol-3/24/docker-128.png" vertex="1" parent="1">
          <mxGeometry x="650" y="90" width="50" height="50" as="geometry" />
        </mxCell>
        <mxCell id="PjXq0stKhjiPxpjEcOcD-6" value="" style="html=1;verticalLabelPosition=bottom;align=center;labelBackgroundColor=#ffffff;verticalAlign=top;strokeWidth=2;strokeColor=#0080F0;shadow=0;dashed=0;shape=mxgraph.ios7.icons.data;" vertex="1" parent="1">
          <mxGeometry x="490" y="370" width="24" height="29.099999999999998" as="geometry" />
        </mxCell>
        <mxCell id="PjXq0stKhjiPxpjEcOcD-7" value="SQLite" style="text;html=1;strokeColor=none;fillColor=none;align=center;verticalAlign=middle;whiteSpace=wrap;rounded=0;" vertex="1" parent="1">
          <mxGeometry x="520" y="370" width="60" height="30" as="geometry" />
        </mxCell>
        <mxCell id="PjXq0stKhjiPxpjEcOcD-10" value="" style="rounded=1;whiteSpace=wrap;html=1;fillColor=none;dashed=1;" vertex="1" parent="1">
          <mxGeometry x="480" y="160" width="210" height="170" as="geometry" />
        </mxCell>
        <mxCell id="PjXq0stKhjiPxpjEcOcD-9" value="" style="shape=image;verticalLabelPosition=bottom;labelBackgroundColor=default;verticalAlign=top;aspect=fixed;imageAspect=0;image=data:image/png,iVBORw0KGgoAAAANSUhEUgAAAlgAAAMxCAMAAAAAND3IAAAC+lBMVEVMaXEAAAAAAAAAAAAAAAAAAAAAAAAAAAAAAAAAAAAAAAAAAAAAAAAAAAAAAAAAAAAAAAAAAAAAAAAAAAAAAAAAAAAAAAAAAAAAAAAAAAAAAAAAAAAAAAAAAAAAAAAAAAAAAAAAAAAAAAAAAQEAAAAAAAAAAAAAAAAAAAAAAAABBwgDDhAFFRcHGRsJHiEIHSAGFxkEEhMCCgwBBQYAAAACDA4IGx4HGx4FFRgFGBoBCAsAAwMEEhULISQZOz8nVFo1cHg4d388f4g+g4s3dHwxaG8oWF4cQEQXNjogR0wtYGcvZGtEjZdMnqhOoaxSqbRauMRgxNFhxtNjydZm0N5q1+Vr2uhq2OZp1eNlzttdv8tXs75WsLxRprFQpK8kUFYHGRwFBARHlJ5cvMhfwc5kzNlp1uRs2+lt3uxt3ett3Ops2+ps3Opq1uRGkZpCipMqXGMeQ0gQKSw6e4NAho9Jl6FVrrlZtcFn0t9o0+ETMDNp1eJt3OszbHRLm6VTq7Zq1+QDDxEAAABbusYjTFEFAgEPEBAbGxwcISIZIyUeJichKCoSHR4kLC4TFBQYGBgPFxkqLi82NjVKSkpTU1Nra2tmZmY/Pz8yMC8mJiYICAgVICJ4eHiNjY2zs7PDwsLHx8fe3t7s7Ozw8PD4+Pj09PTp6enZ2dm/v7+lpaWBgYFvbm6Hh4eurq7Ly8vk5OT9/f3///+6urqbm5shICCQkJD+/v5hYWEjIyNzc3Nu4O+qqqoJBQIWAAAQDAf8/Px8fHyXl5dbW1uTk5OLi4vU1NSgoKACGh3Pz8+Ojo4fHh4MDAwMCAUdAQAhGhEZFAwsJSAxKiYVEApkVEAdFw+ulHLxzZ7FqIF3ZU5tXEehiWnLrYXmxJeag2T41KP61aT92Ka+onw8MibVtoz71qX+2aclHhX20qL00KD00KG3nHdQQzPhwJT10aHZuY8jHBPqx5qnjm1CfISDb1XRsomSfF/evZJVqbRaTDrtypyLdlpFOiwZFA0SDgiIjLJcAAAA/nRSTlMAAQMFEiIxPVRrfJWjvc/l/P/p2sq2nIxzXE1FKRgMN2Pf9P/67sSqHYX8/Pz8/f/8/Pz/1f/9////////////////////////////////////////////////////////////////////////////////////////////////////sP////////////////////////////////////////////////////////////////////////////////////////////////////////////////////////////////////////////////3////////////////8/NhT254AAJDnSURBVHgB7NWDrmwxGEDhabtt2/bY7/9cB1cb0bnx4AvLaCX/6uUBACCECIHVCGE4QVI0w3K8IEryH5IiKqKoqIIgaLquc4Zhmoxl2bbjkoSH+wECi68hQghC8GX19jpBwW9gsoPhoRMxJqcLsZLI/yPNckVUhUIvWZOJKJfw/GCe2Ld3X0+fFEIQjD1VoUPXhq6puSSPpKZtu34Y1v8Mo02/6bbbtm13u/0+lZekXDxoulFbtktUAZj0hdBz5vWeemNRAU5StFkWY09puj/u2m6z6U+n80X+mf3xcj2dhlPfbzZftbW7422fjq1lyoEvTYsi8QCMfcGnGI9vi6I8MqoNXs0z+Y97036ydxZ+bXNtGH4ZXijkwbUwkglWKLDirm/xtjkJzgcl0jYzGNqhr/uf/J0np2UunQFdrm24c/3u+zknsuZGakZDC1OC0dPb1z8wODQcZWjQZIQy2j/WP9430dvb2fNmLfI8dbMRcbWwNGMhln83u7a6vMLxkl432i7LqcvJPLkyLcOGRr0klIu2XWN9K1zS+6NncmRqemZ2bt7r84vkdSRJIvKCf8Hn83m98/OLS8srq9PT01NDA6Mez9rEOrzMgw43/fCu+rpuiHIn355VUlaRErMLS9niBjYfe/pWZVVp7b2C2BKvu6veRcekxg6I8b/xNc/Q1Mbq3GZgS1YkVdP0YEhViSS+DYkKpiKhUFjXNSREREOWF7yBzc3l6Y2HjwYerz1ph0s6Gunnc9V3RQWroXpllt9Pjtp1U6LLIlp9rPgybNkFeTGlWlxuWnmXFfW07/H2zrPdvc2t/QOiI2GaSaIimyiK8XYUE/oGcgxFFDHL1KBuEjb2/QuBvaWVqeHtsb6nEIVvaHa7XXXAyCvILilPZe6zL/gaY4Hdx55KSSstLsyvAYTnWlzNTmcPRDl8PDA8Pbvn3fITNYQ6ESIqzBMqjhg/BoIf4MgUEkMtFNEiNPX8W9692ZnhAc9EtHFbO5zuhnqBj9pVlFnFmtHqxes8pCexnEKnbgvRlKILvYaYUhNjz6eOTxa9+xKhfadSnwzmk2Kcil+MUyX2QQ2REJXWJSEH3sDu8dRofzS/zuhX5Wox7eq+fW4rv8/ksmrxGtYfe5xaZjvPZ05xLc3Oxg4eTMYfDz08ufDuy6qmR3AmYuESf0DFGWTMMUOU1IiuqfL+/Nzq1MBPvSxIO92N9RyLLnttWSWTywqua7T0S4oGVdbdO6xvWuj2Zkes9wapUlv7JBiMqEQyYgH1LTk1mF8Sza9g0PAHlo+3H7Pw6qELxzrT/txCW7rj2rhlJRWTqiozO6cGEOy+MzD5cfTRzJyXKqVFcIpiE7l4dZj5pSgSCdH5a9+7PL3d32O2YQPdRQMkP7s69fL7srja/ktOq85uE2Lltx516vnUyuKWQTSaUqfKkax8g5CKI76OZIOEdF3yB06mRvsAaXe6BKDcsduqkvG7u0q1rKhKzcjKEYBSV9/gZlJNjO6sbC7IQT1IJNHsPfEacooBKlK7wrJvaWNg3KxFul7EzS4up7jcYXXilUWVI91mN2cqztXY/ACQnwaPl3xHYU0nksKcutbQ7DJ3ZHVxa29j9JDtpjZwQGnLuhK3LKvulxblA4VvaWZjetPY8OriAgnqqqQwpW4IBkaXqgdl7+7OmBlc0VJsK07HTkzG79fim1hVkXmeZ/afq7kdKK1jO7OBfaKFzRFdORVvGgZLLnV/8/g5BtdZI9uiL7BVWLH1jaxKqrLZa8xJvbGxy6y/oZXFfVULEuOaBVX8S0aFRHTDO7uN43xrYwPmVk1hdQq69bViy+JWMj5Is90V0Kp6dxNQJgaOLxaIHiYGC6obDuatpOpka3f4Cc5bTeb+aW5W1ddRyyKJrb0rmFWtruYOoPTvnHhFXcf6u5QqIdwSiUbdGsLc6myu5wE4e3WKtQHxxWE/0NRM1oAudw8OuJPPLvyqpoqs/hILQ5EN6pZvdqQXN7jMSrxdi9PWF1TL0gor0FGWfYc1IO5VHQ5MB46CQXKKR+ESk1NzpSjOH3sAYL0RD/rUZKfjGvHLqWWFVVpxvmmV2YBPR1a9ohaWFIyqRMagboW0g7mdCQB+3cUBD4UZyV8ktSyt8MSqUrsAwAvmxkLvALVKD9ECjB2hSXS3JJ34ZjyXjVhQ7fhMtSxu3TLD6jYACPXuMwCYnJ4XdVXCAvxuULASj/a2nagW7m21WWp9dgcmZ5wLPB5axnG9f2NR1sI4rIvfFyy25h+OA5yt13Gfq5alVWVJDoaVy4nj+tCSPxhMuKyKI7bC4a2ZfoAHbqaWNWt9qlYVtbk8QF0DrgI9016iEwWz6nvFkBWi7c96qFpmahVksBE0PqyJvaqoBjuwvQvgcHjvSFONhF0DxrG5RbSj3VGArnaB48Gebu3Gx7trlX5PwN2FJpysjr0kwirQQpElXV6iavWsCzxAdoW1rRVPWpUXmqMVduDzE7+uii9XoKUWTa1JgM4ODviaWnqg58OhZRHVigehoROgaejC0MirYWVhoFonYwDr9QJAfqk1xH8Q/AGlm2nV0A4wMRXADrTC6q2FuD89DtCEU3xhGu3D+GqBcisKffJ72A5NuxdLqycbvkj4HR1ogWP81sMeaO0UeL7GlowjRPw33oliSpaUyMNVapEAIHSgVsdbuqq8twMttYKB7Wgf5pR/eNJ6+YqyZEdlRVo6pSI1xfEDIzHdQq1Sau+wlSBqFSGKLL4PC1kJk+UxgCaBAyh24CDx4VO6b6WWZxaf383Pu1PDcZxQQ28+aM+2ZaSlJOYF/vgzqc7nqVbrAOM0rYgsn4ofwpriRc3/rAPOOnArHkPr/aeIJFVUZxXk8RClmwJRhPxzW7qDvWVixVX6XQCurgngcMOHWokfhaUWiQQGAJo4gYfa5LeHFpu/ktNrC2qYRPUNTqfb3exyuRoazTvDtXCA5BeVpSTSqYT0275fBMAJ610AO16rBOPrw6CxMgE9GFoFaW8JLVaBabU5QGmtpyo9gDfooJrVAeV2cTpTKzHiKpPmM9fRATC4qIa+rxI8PRXpn9PP29XyDgK0cxwvZL6x8YCOpFTbBXMPp7GHaTQ+Ojg0dTw7O7uyMbU98vgQkNbmxhYegLeXJsKZE/hzqLIDCC1NAI+XpOB3kVaGobA7tF0Sfd4wPml9qEo0tDp6BIB7Ka84gWmVajNPvnU1mVatbR8vz/tkQtSwxm4QRvZ9i7MPRycAgGfXyeZkOm74kSKMq+Ragee4dYC+6QNdlI2EP45MESUS0jVdjwRjRHQdf8vS6SfdD0cWNe8IC618PDD98g5O8R0erxXvBICJwZlNP9H1EJHYV8LOwkXHgopvd2cN06yZxhbfVp10Pc6cSEJwsUqJb7pKzwEQejoBHvl0kthaGaZSeJtS6cgfuJjbnd6YesSY2pjenbuY3z8ims6u5TbiDq2ZVmjqEniuhJllinG/2NzBaQeAw+1dn6RFCLtJCsWsX3ZH1ehF2P69nXGA7nbczr9bjn145fe7Tnrjf3742LjigOOaADxzqprIu+yn5rWCQZ0c+TZXNrY9a0/hTQ77PcPPTgILUlBXxTgvv5UlffMxnHUIAEWOH5JNuRy2vNgpIp4ZL2Ef1Hin9QaJkK1V83wv3BkrqjTdvMpbfrK9XEdlpcNxOTqa+fUxcYVDu/P4QDfkRO4/RQpqZGFzZWdyAhg///Lrb7//8afJH3/8/tuvv/wMjLWRZ0s+UY8QJR63FFn37+DGAwcFFeZwldEW3RiE7b0DDa0yPpSop0Q7WB4Fc5HJ55ZeyYkTMakqqzJKsu7ZC9racnPb2grs51m20vT7ye8/SsCC2sbxAsbVSCCRW1DBKAgfBGa2fwKTv/78++8/fvsHXuff3/AV/wHSN3C8uR8MkjiOap3KRJ11Q1O3wOfRHqs4B56rawdw7iwSXUKrPu7kek1Z9gC0twg8FOFS4ApuzpFMb/lpzxXgDTjzJtPmQai3tqJZ36l2Nl39n7sv8WviXNs+3ddzytXTfW8ndrMSbYpZCIoorrggMBlwiyxZIIOK4EbQ5GgJEiHuCnhcWdSq+NKUxmO/D3dseP+oL/dMaWFMMg/BSc7vu9/3nCNt1Mk813Mv173t2VjmERz/P7dB1JWuqV9uljDV3nEkBMhy5Oix4yckOXn81OkuyNLddSTYsxkAtlZW7fbWiYKD3Yd3V8yH3a/juFc+mwEuy+4HCqqddXIun71yYvfGJYA9i8MPn8bsUppR9fwH78pMLgy02EhaHyNvKpppkIdM0zRNGUTxzOD7b3JZkrpa67IJ/x83brl2769fLCuqYBskOX7m32fPnb9w8eLFS72S9F26eLF/4PzlK1d/OgKSUHvwEAAs31tM2sbBbg7LtwOmLA5AlsUOLKriPaIgTr1ygqzqtzpO91n6zKHUlfXha59DHiSUPdvPYbL4zdnykGnMePsVwhYhUeG1vwZOl2NHw8ayOsGRGhGkFAdFOv9dVVNefu3K5QDQ09ElY+ra9RuDl27+TyLp7R8Y+vlEGAC6gnkAGgp2Nrt55lfUzJc1Ee8Qu7QWYP76Mi/BKgVmzLlzE/xWHYd3CVlpgtXX770FALH1IXZIsnTb4paCgtiGrIKWxduWAhOnac746oNPJkGLlOtHbwHEXa2oJnU1ZUQ5iHwh7meCeD087SqR8PXfUjHVvLNgD6Eq2CWB6pfLF/r+ANDwTVmGJRn/aRxdg+d//lXCluRxrdi3y8WstWJg3jEXeg4WNDSVp0wMCqKrvIDMIfDVcxRkpgFWH732JoBvZ88GyfwFTfvWlNSUik5JxNKakv379m5fbAIAk6y4/vHexxM6lShemSGbwUqhVnBMiQcSy2jPg8dWVrq2uqJqx75VK0lW71tTUVFcXkazPOt4+YOZh9Wu1SsA2NsjAHDr+oAMqmEJTvH1lQQxGV59A9dPAOgM9gDYunq3y8b4lRwOV8Uy6Dk/5hX/Z7cjdefQyW+Ug8y/E32hsXNFsPqCLKDeD2BZwcaKUludq9bJ8zZREhsfUyWuWr60eN+WxQAwd7YOwBvvvvCH1qJn/Aaczm/GtnW1vDClmVEet9NWXrx+Y31sZeBSMyaJoeFAYf6WVTuKa8qc8hg2MZOwcpevWiwpqxCh6uyFXkKLBClVIXTRx3ov3D4OoKvHDyzfIXodAiMk3CUrYDf4sXSNK/WXQHT+/m3Qczq89bymyCJV8/G7BKs5RkJV47pyeeTnuH8j+nyiKP9EQ6Zj0zSbVgDw22dmgZshQeuZ2BN+8i/ZDC6ocTsEZh6Ij/FANBJ90QE9ZPntt//TGWqTJBT6v//nN8hiXpZftKN6l9NVZyOOMUNlUrs2bgJyDkbIAl65MEJwIbSwyvin+85fBRDpyQHyqzysnEyzp3Q7rDl+2Ne5HOI0rodr7VYYDRKyntVSXT3zyhsEKzuA/H3lThcvSohKsN+Dpmk2V1RuAmCcQ9CSO5U++kHm2pvKnKzUShnv9uyq2Fgw3wpI5qEjxikesmCyHG4Pxv7FYZCYFi9cXSy4azPROy2I3rIdiwGTBKs75y8xqyql4iJs3Ry4S9A6lAMUkcvE9gh82RYY/EZgvXsayBKba0vzYTbo8GWsPlU7dfXpl4COavEaGivK3IQqn+o0zVpP6Y58AHqqJfs8ltr8YAanM+gxb12tTWDsK3fz5euKtvrlkP1IxyFgAhN0LybHj57u/AtfHUdkdDUUNlXsTns/hijwzqp8wNoTAQL3B2IeEwEkRZEcrsG7HLojeuDAeicv+NhceL6SbAWwz+2Yxvdvdu5eAL1Bh7ef1QRZpK6ejfHkWTo7kFdU7PSWsbkwZMNcZVUFVsBI0Hr7VR2n81uxfK2L4fuKRNZ5ytcvXKbggX56cP3suYeDg/39Fy+R9PcPDl44P3T9/k/3IElbsP0PHqi6zMWnrymDHJOaIsBAsOp6NEjYSB1WJMMStH4BAoFRoLGUESeCzbmSMjPAPtd0kCXwMWTZc7PwTgwEGuAqRhCQuqIHXVjsqZtKosEhlHn56kYA1qwsgMuiP2N3nfqf4CNlJVQVHQDgD3YEACBw75frjy9cGkl0DCN9Fx6evf9rtwSujoMA7DGjXesU0wMtCqX2LQOMEQCP+hmUFYNIf8bDW0DEbsD8/Yzm0FHm3QCYZGSJ00UWl4VXNeDgiSefIXtGhWv4OlHwTdWZ9TgrtgPWGMmQZQT28rzAYAOdtTUbCgF0t3eEAIR+enR+cBIPREIh1PgP44fY9ycPJNnNA01rnR5HGupSHaK7ZDswGggDvw+yw4pFa/UOnUY0NAqs5Hk2ZPm8+wAzIcs9PWTtKoQ+C3iZPTRkx9W7MkGQvVJw+1K4/KIgem37t8IP6OHfoe5exbDrqSuu3AbgoBSwH/vl3GAvAw8kw0uK1c/e6QTQ3u4H9myJJcw0r00VeOeOJbDMjQA/PSQjyA4rFmj1XwPCZlndMxJa62Rk7XAJ00GWs2Y+9FncjI+erps1ThCYgZZqty3FRxR3u8uXwwo9llSpG31BrOMrGhsAczBCqLr7+JL0eqfGA90cHDoDIBDMBkyNxR5eUzfeJ3h2byF1FcLpoV4VWKUGraExRExWFJZ4BbbrTMgymYF100JWs7d4D8w67stYv/VTxdXXb+EPnjz1KgTBvfYATJwei9e6BVE1U+WpXugndz0KhK5RwD5lJ1g2QyMXrhwDQkRf59XXpHwt2PRD8QrkmiPAg/6nDiuSGLIu/Ipo5ygOVMvvkB1Za9zTUdeCaz3gz8K7T1FlEfH0+R8EgdeWop9CZHDFNpgNdrSU1wo+tXjdVVJkBHrax4Dj1weVqGLHlhSsXzr3E7lpc4FtqwSvw6FVNFi7bg9GD0dx9JwmsJKVVt8v4EJ6LK1ysSJrB2C1o6HC3TydQkV3k5Q2/JAZWQz66sU3OZ3FjBVrXSk7Kb4YrpZCbzFh+y5ns5oVdO/auxTI6+oGbp3rY0CVmt7qfXyHClGMQGFVLRFBWrhX/F5gNApc7SfdopHEouGzQHQUDTu9jMjyrgb8RmxbWytMQx3bfItgzMIPTDwpO6781hgiPKmbkRiu5kFv8aNR5AW1eN25bjFgbO8E7jweeQqRFamtm49vAeEeK1C/yys4NMCVsAUwRYDbN1NXV2zm8DwQHoV/p4vphoiiexUsFj0WlzungSzBs3YpTFn4hsHLYsPVRzFcWYGiMj51VSrpK6MlB0UUKavQiyULAVNbALjzkBAxPPx0/N6R8/eACHVtVLHmRdil2bNrEazWCE4/prPXUAi1D7sIWQ1VbkbWwdMEvyEbLbv56SDLtRp+A3SfMqgsFly98LmEq0qeCILp6CtjjgVN9KeoGJQd24BDXcDJGxKsnmJI1Xc9ikDbKDavsvFPF1mCs7wQo61hnOinv0lTob9gIELIWlrtZWRKnUUwG/RYyNscqRvDMtt26HV4e/oEPPntn/wjZgcNWOmZxiVvdlXPgz7HgEpPclyJcpuJsW0MR1OL11WgNXgViBiBgvLapxkdCp6arTFchfCgT3rmdCHrQAkbnyXwtgLoDSZUekRxOsawAVbg5WmrLELm29BZ/KicDq6E2rXboLdY0FRXJqh0AlTNh+VQBLh/UYPAiqB17gjCh62YX8wWVLHjSt/ZikfD5FyTaI+sLkT1KCTjxpaVKYTRYsA+lzCeZiMRp2h4mmDS4a1Ykcu084PvIstgRhFf5pgGrko2QW/JQZNTBVe8c+NmjEY7cZwcFS0sCimtW2gNjGLpTuacP4Md3IrREHBd+gvShKyHQGgUC+lkWLlzoxX+/e5maQ8t74yJtOXfN4UApXQTvsvC+6SypmcI3wey9NhexgvTeu2EK9J6juQfbN4iJ2/vXtLqhOhEeq+AzAhWu9jOhOF1r4A+BJyVnjptyDqHzZ1WrPKyIaPZXb0HJju2ldSJtDp7V01JSUmN4HHJ2Xl2/51U1vT4dyJGv+CyjFixazq44ne3INtgQpGK3y7UlrfAfziM0+djEZxmjgrZqvOdiIwCq5xPA1kC35wPfSdwOW24IonFytcRNQH7GRl1iYL369HSbFu7vn7B8iV79ixd1tK4OpadF5l7y/jdW2HkppmMjtUQf8np7FhCHmKqIthsC6HPtaMxKa6IQC2ej9FQCLc0oRcVeZFjiJiAvSo6lC1W4hthbg2RvtLcbVd8jd8RMWN+KS8wpj5WwmrwY9GCBkyQpY3VdcyKQ3Cvhv9b/J3QMQ2F9Q2y/MAaV/M0XruzXgp0txMvmjTxUDEPowHgUS857VqbkYs/IUzIqp0uskRH7V5YWztV/CttkNV3j2x6o9MnMl8BPawALCazSRKz2Q9Y6mPUt49RZe1ajNngXkrZyyJcvcRRQcNeyhyknmFahRyLHi271HBVlYfRMDBEtkprGR75n747ErI2eqlOabrJWWsYj9KOK3pRF4CQBevJGLKGhnrYjX4Dh3HJ9WcDW4vdAuv3XQWrDq9RYJeqIXz2LeiMaBGnwakJbrLrRtVkQgxXDRKubqTpfGIu/AOyhhR+T49oKN4DUxd+H04/rsj0nqXyrAPlvMBKRM2DHUqJQWtphVdgDMVK5mEO3viYVFaKCus9ZJmwZ61nGsSou7qBIpEla73JrKlvXF8dHSCfNE23fSSGLKommQayyDIsx2gEJ/sygCsC1sgdCkOKahn1brPkwGOycEAe9hQzZqgdzi1U8pci40C4emEGAWujazoBYfli4k42x7gTlYRPAx3PsUHJvUoXsnrPELKWrk09NBFFZxE5hqf6tbHfDIp3MIpDQAUjKkSHpwl2Dk9IHhYzqj2hdj/wPf5FNi01S/gOdPppGUKHrWwB9DlSWawvuYJeMo6r9Pq+J+m6L0+dTJEi+MM/4jE9eIaQdZYI+HzWY3LYxHzooYQWh2yiWkU2xmE5ZmHGC6SyUlFYn2ZhJkCmN/V4qQlGgwlNyQv5BWfpYrKDacYV6az+YxRV0RtNUSPXLIM9jOuaGXAGY9h7AuEcurtlrD7SEpjBQSEW1hjAR8dq5/BZKlQWabl/QWfHFo9DZJv/Iopx4yWLHgU2myP5HVpA5XFHL6T92t+kqCqQgw1uITVDyDfSjTgzQk+eMZX1GK2HsHy3zcEexuZaoBAORizexTuYbGEVMBOvU1yYCtUAzMHSEgrmfGoTWx1lNt5WJg1s8E00cHtgMmJrcv5OFOvqYQoAA+k/HSkt0noYecUpBSiCeye4AMKDGXKwSIiTvYZIDla7BHa/EHo8KXZscAnsVNY/U6gkJSy+zun0aFK9yoLAe7xevnlXM+/2ep228TkJZIpXQG9VjTYE1z7khoAb5Ldn4FQeIWJEi2BzpBIRboUxiiH2G6GZ2u3BVlI3TCJIz40nxMyosnwOZyNmI4vq/aausF7U4TvMK3E6VEf17K5YVV9QuLWloH7lmhKfu1YaoUrhRz30FslxV+WB7IFMuSk3yUWJWLEyBWMoZUgiuDNC+MyoyrqLiB87mL+C4K2ywA+lGAyMnhrpAn8WXkkFWFQtY0eT16E2V7xm5fKJaaeWvRUCpcvl1pAcIyqTM9sOm9BCAeEvDHk27cjrHjQUT5VzIC94KXoA7V1DNpVVyK51Bdde2OPZwu1MYYxQV5yHmVOf5EC4+vgNzEHDWhW63CmsWgLAnKc3m+36PHsu4X7FqhKnh/hZYkbzBZWKBvdemML4lZlf1MDNuo6oXvFKWV0VYxhXJFWbYZV1H13ATmaV5bA1U2pHKSYyUQKTDzAfs6ncb+rA+gycHQudopi8bDIfMNtzMC4Gq9EEYF5RdS2/AHoT5qmQj0JthTWzt56M4U+I5GId07Eorm0bjl2kR8+0yhoAelDAs1Yd03uPYwwNFra3IJbZCpCNN74mWzjleuTv1VpnBXf1MthNHACOAwBOTmmaCVv1lbDk5KrZbMkQ6gM4S4eT4WNZ3sxgSRQerDHM5Llrr7Ju3kEQDdItZjeGZo7DZDGi0skydNrhrkQ2uCl771Tfh9nJqRFiE7Yhj0McseoBWKDHFlJ5SbG5MePuL/3VPyPip1h7agqrAe1kw+nRM66yzqPzMPaq1ZIq6HPjZJqUQx4KmCpwBO8+WHPx8tSB9Qqy9EkjJSrH3Yo8xBMOsJpzYKfoVVApw96WcfeXjqX/NA4qYm31rEIR5oZwTnr0zAPr0nG0xzQB+zcQ3PuBHEwWPRaRoWMJK4Hv8R4Ba6qWcCaM1U4hiZnlFyIPCYQDl+tXrZmVDscYlZiGDJ/LbUSs7Py7fCfmoR33GIMO7bXuFXQB+5lb6IkOKnqCzDITm+1gqb6pNmEmzQeZosL6+k3MTR6+Cu4dlF1KIkZVdlWoq7ajLeOHQ8C6eAztU1JZVL9oZ+dG08Q41HscU6k8OQCTkm8o3G0TWQxpyTZ8h3dIB02p9/llcGYiscSkbUD25LhSU8yij29EdifOZ/5wqF6uyy+HGuykezuOXfovAdYwhbZBlquhoDlzFT4WsS6MLRVzp1g5QxrrNcxMbsgc3pXJceUHqryCmj61ogt3bpL7m3GVdQrtaBHLRPYsYW4Xbqfh0dmvRgSQZjmwFzUpC2iU4VaSaH45sqfaURFbBPwlvkta7uogNWpGQuFgR6VbEFXj9Z5uPPxviNfJR4kkugu+eM++kD3qSKMtJO+DWQRPhWESmZVrxT63wEawrsBcfElgmaKLNRuLkihFwbUBZnBJcEVaWc3DWtuAIK4O/3fE64O5OIgtdQ6R0XVfkvzZaVAlCf1vmmzhSQRR6GAn46iwqmiS3bHKuRYmjZUSsF4C9x2RIvGuLP0g2hwtSS2hJVc1v+BzeCtxqFv72kv22pMgttXwAqt7MjMx10DjvJQ/piMubMceGRjsdYrbJvrvRsnF0hBYnyHLj/Wu5iTekRl+JBY9GtWeULKmQdxi5Ea1V1k3EGK0BMS1FOAgjlI2J8G0/5uxlZZnb98+e37govTjcFrq/VqVJQ4MrVwmcJDFwjqmlEzh8qkCi0qxvsFM5FXXCYmfZyP8BiQUlmSm4N4HaxTn/mvCqr7jCLJm93nJEj6IW5EhLZE4e+coZMGpO2el3RTpiD8OokjhfLPz7xLvLn19bZx3+uhX+A7bynlHYp5gYRJLyHHqrT2Ux1yAII5f0l5hsbvvHYzZfcG7HjnxLwWpq4F/jwHoDkS6uiKBbgCdvw+Q0tI+X9ihIB8Zotv1sBjG/eKljIaUzM0mzMJXUwMWBYWzkhUkEs4TA4uDESsooaueagums+aEIRW9+TBT+6rPUVeEg+jqVwJL0mD99wFEI6FuWQ90hyJRAHdj0760RtZtdLBhQ0E52AFwsOay21HBWdyAOXhnimzDJz8gW6EVGdlRdlNN1ZeHksXrFFeNy3C65iAEsZAhuy9SsN0Rj4CjsbOn0R3u5CDrbpDkdkaAo9TirbWTFbJgp5IxYUkZEq78aPKIInPVDfA9vplSSucZKvLLw5ZaR0KYJweWUb2div51C4L4qZfOJj6qFEOP01LjEJTYO6b72oWzpG0VZztyBaAR4koZ6wJua4osSqVHcRAr1VWuwq0pgBGwAEU25vkogncnLN9SbfJUO6CzUVTn8KWksawsPS+Cc+0etFP6OT6s5C1Lj2/E5GF/XzpCdooLqfV0v/qNb3btwOE4zG5sCPdddEYBDgrhgOgYfqaPaNtg2IGFvKrKVWCkAsjJNaCefeytVPc7d4qrBKgYS4e5ifOZvqTAIh+w3iuwDIY7nMgS0j/rH3pwvBWSHLl3X15QqnnxzFH0sHRVOGrr0Y5TRDYo3Of7iLSCi/9eOiOErGEtVe4DdFC9ojjFCutGGE3YXmcTpvR7svHFRykCKxmhn1BjmVhYRqnoJohfyRLGjat+7wKA1lBMJMNy7NGgxnEVzdc4Q4SDTd2M2/IRpC7VYcXB3kakG1yiGzcWptzisIZx7Vm009tXHpyqv2SAHst3sSssh233csymFRXPpACs2oQai1IBCTOFdqY7z5fOxxE8ioMrGj77AEAoGu3s3hyTMfoVgEeX6PA0D6s2Ec2i3lcflB5eWcXZ2posz9WpbZ6BHiDAmodW3BN9rnp/vcKRmUnFDSkAqzJJaQ+1dhks8XFFgwsdDOlPoI16VOPgaiiE7kjrZkyQzaEu4BgNUtbYyQqoz22hTkg7enCZHkZhSaPgkmXmo5L91DQP3YmdyowJS37KolclRxVOZo4Or5IlnFrBe3LnnWrElsGEOGLwM409olr3HoSURJAU9P8eP67q7NJ42DVBoxWHsE/NQ6Qax9ZcDFBfvbIFi0MS4dCFu/RRzbj3o2hjMBjxkmt61vyzzONtwWw2311Z3JBH00B8SefI6+O9RbNErDI9WYdMNihrt39COBQ/rgpzuN9LyNIuq/MrOlDvdqgn2HpwevKtoKnrnd1QkTFpQoWmhe8KnojNy6qH0c6OSIEcmdn4/PmpAIvM5vP/lIYl+cTkaXFznOM3SbMpmBjGI7hPh6l4NSdwZHPCuKoL/46F9JqGVUdUvXepUbUdJyfdilj9zFVEwCGpcAhrWCZE0/2I4o2jERgcEz37vBrBuyaFaTM0g/stzMKKZH+NT3BvgMkApdiZFBYp321ox5ASVzRirwuJ46ruCK5oZ0qGyXsPYr7KN3DYfFJQSLz75N7EMahKq3Yqi57/PoI0gk2coi2kKqhs1tIGullbMJfD+zQfa6o9Ot9hGUVHyQtH9FCIwYrVLA8nuKvwY6syRJK4766kF34sgMv0Oe3CqjbMK1EDlliIjknqls70Z4TBIBGarqyZyrqrrHtnE1ITVrvk/bDgkMzVd1Oebkv6jUreG4qdQnI7uxx5Sg9Luu5sE1YDSi9FOtfQWHJTEtKyHJj8pJzf6OKqToc6Mql5m2z4MQTAIAEcu6QdsK6wJKUSDELOI10iMMLQrFNmoBnbVXU5WK8yfqiuZBkhi5tUMr2KfpNP3UivfLLFRSooiqrFVRGJmNSwcTVAFY4qJM5SdFDjl6LKrhsMktupXZH/TYkhXTJlYJFxWwhjDlU3MBb52RljQgWwPpRKk92C2qo4Wuk1AQkmyLfFpx4UNlLxqML9/Z9HKvE6yeYAzml3MH3H0E6t9qrdkO1EYyl7MRiEg4atPTSe8CDm1TiFlGb0MvZ+0aRJw7f48hl2jaVoplDLbQi1NYWwmibWYe1lm44qOgsQjFE6w5PbGTi0QlWi1OA6rBWwfkU75RxUS0YCRO5OzgZRTMggUe363UZiejM1YEmZkGymink5n8elsFiOgEjtX9voAeM1U0y4u7sbAb0BHEis8sRSdY0l2oQWRU6EDucR29mEtepwpSzyVfWSLALWj5MNmmTFO5FYOA4cZAnheJ9mwLqRGrAor14JvQkb3UzlA9Zv8Y9U9srROL/vwTAqSeD51Q2wmiGJcbzg2qfe3D1/vGaG6WwUVJBWXhbFdpSGVgGWtwr/CwxOAtZgN1rBJK3oZgg/0quxiMqqAvRooXhfvTHfnJXKLG5qsf9AgkmdBBOVTbvF+YDeD8APf7VHYO46OkheymT/ILQZDDKmXWBIWjOIBeRpJAfWmBJYDzGW8OE5tEYika7OCeT7SLo1FpOBy0O22gn6JJZex32ZisIi7v1zzCZP3KG+As9TtmEZYADsf56Ij2VSy6EYjTUyua8vDBbhohTqaxivEzU8VWCdR4BLxpGQRAGAAEjASrvGYijdM5tU60+bXdK6EwoJU9524mcrpKD5tvV7YDBwZDvZp8IeinkpI+xEUFrcX6Le2yl5MGVgnUMYXELqCveHhq6cQkBjYNFjtKcKrNpqE/JQKNocydnLxbDr8DphJKV1Jx+Am4sFNqbJIwL/n9XIsTPnmghYe3BYAawBdHeDSQIaFZ/QUwzhIJYlL1QUauMA63JiYIVwbIA+1H+HWDp2YKWRx5ICKpHSOuTNqC3SzMKbKa7RkRt1voeFcY+O4CyC3Y5VboF9jrUCWMOxI40imXCc5vk2AogCWMymMOHTd6L1AvWGSBuhohpoLGbmnaEp2oi93sRpHVFuVE51i46ssl5FlhmNTofIiBO9zDVI4mMGFjM7OrnqD+czqbGIbmhV0A030Lk5keG+TTXV5AE9xOYxjHFaAWtYJVeoPgSabGGSknnBtROw6jhVQ6jSqTMHVqYwT8KxcloDO7AYyuQ4dAfC4WjnuPdOdREZBRZCuDGZbkACuqEVm0m3jc+DiaJVs6B2mHaPB+UpoinawjyYEh95s7d6D8w67geVHTqqs9ey9FJRFkPRRSH0ctFF6sDqPZPYS+HQOTYhrkJYqhDQzBRuUwGWp9qPLiJLJtdudibwsKREwbhCiSKk1RhAeom3EEQjJQ5SEIGGX5oTx4XN7rXLaLPqFy+qGEL1+uTvgf0MVGytSpkYQ1QovZNwsnj9p+tDD44gAJKIVLOilfdL7RSC2tyCIzQcYNKgxgT3IvDXwG5iyaKIajZgR4qs21FEwErdFiaaaijUliwmXKnM4Gbw39/ldCxDGESHh7IBCqSzAotBYxGuus7RRwfPyMiK4HcJWBmhG2jcQQs6pEI/RSUZA7DC6KJUllbFGV0IqMx+VrE8efG7jclvL94k4eo91bpRhm06OhP2Jl+6K/fbK0vxWQjSHvJSJmmsaOKqS+rPufnnhzTr/JSYd1pWLCavManHwUkGjcLCBHmDTnmK1nj1clROX2s2vCFnDGuSVf2orjWSK5+U4nC4qpZAn5WFbxgcd4YlAjNhqFCrnnGvgyFbUSnOkG86iLMTgTV8LWEKOoqfpS7WYVrURTDTbDI85Qo7pFyhahc3R5TH5EquEOIIR2U+IzIvPgh0jgNNo9CjDQ0J55oxNNtbkEfspeNJEny9UcLVawSMaQnh8u/QGbG4NDktIq2UsU6qEfOxzbK+wmRL5DBqZMKdz9WoJIue4t8IooCApTY9v40q/VgyUgHy3kdu3hyhwDesnRmXI+sO1Rpelf7mPIk2UphBp60JMGaBDVcMuzC/4LKkRkZBpS04TxlJsQxdIz00qY8hgsQnc/NP5zqC7laNrInEYbZLHZWqxUtB/JvOkoHJCuBan/SZs7FPjI1p1gwtRRAdsulI1RZWKnQEiSC6ahYA5iwO37DiisEYGqy0SMCRtJ6Q06NR3u3D3PBIkxto9+WkEaCbE6UG6YPjyj6CEKKDWgHrONpVO259Il8gDSOcpLIkkoqLj6wTNwb7Hz4AxhDFCaqb1XCMEQ3kThlYa4A8mlcjTlBXvHPdAZj9Og6vMOOKYWakzg9scDtElW6dSQXyPpZ+1eCkVyxVNHUmANaZkUnAikprMzNW8y4PIz802cmS3Pdw4ix04DTQOoZcrZIG43klhsFrKnFY3sSqFlEoc5VvAblX3IwPWONBBpX1yT84nUmCjZhkzKv8LOzAkri4tklxFQ13ShAWhqSc84Qq0ygVNQ9r1KXjV5+QRU6WEV2TIgiqTr6VOPwIAK3hzUCXhhv06OXQEFU1n0RlB03eX1S3TxBrbTsOINeexeGt2MwiBlyxVvx99CanMxOyHI6Ew1H9emVbN1v71xFq/5rYjhDlEEckl2rkz2mOodxO7VKF59CGJTQHSL1PRTkhQGpZ7Uy0C62TpjEpmtc02SCQTzUIqdvCHciRdopI2srhcVYsAow5Og7vPMdkBtmR9VIWl2UH9rnjevA+CeMcbQuYWmC7Hz/6yY2dfC6tiCeSXzIijSIdiuFKs5yIlAnvwFbVpX8+4oQVC0/oalxHJOmwmc1habykhrNmDiWtTmBjrvOIFRdFQayrK24E/OYscG++z+5esVrDlzkJWaucNiFuemPZZEtI4mPqpW3DOUWjSwJbSLZP5ugfkx+mGXUtzT44Ivmuqlms/UCEiLjJv/0ajiTBFY7gwbCGs2auow2oqk3ZEpKusy1CHvUq7y6rdRZvyQP0Oh3w1dd/e+bp4or+vJch+Vn1olMQE7CjjYpcNdNWsg4plazwfjnEkc2duPPwUl//dSCETqkUSsMR/Exz43YtHo8+FGxFF8AlxNVPFHRoOIE0yDA6QyUsWUnk+4b/eGxVjXmAfaYO+OfLf0vBvWJBFsfprH7kl7gcyldO4Z3Roqxh9pWxTIo8MnnwCvkICZEVAI4djwAhDfM5ZI2pnXmN+p0XaQppj7LekJD5K7pawcVtqOjCSTLhmm5MVx//yjDpNg8Fu3bkA9DPzAI349VPZDOoAbI++ILTWcxYttPDN4tKqpCZHVXO11KspaBUV+IJU+FcAOFWICTN7deqspd1NwVVkaKdbPKwor7gKlrDiCORMVzVQF8pKiVVd0SyqGI79syXYKUDvnjnI1ldaYOsTz/nsrL0QOUutyj4JjvhyGbrzFYczDpYu+nGT3o3vyQu9hsLREPy7IYhzZjrYdoZkl9mc7DskimkwckKFUSDmK4A4UD3eC01R/9NZYrAFRoap/Emz0KB8ufTEIdzC4y5QK6RtNUXr78Yg1Xq6oqh5/5LgFz4rfudTkGYsBmuCfacJ2at+djCjw5cV04FOYYIuOSTD66OaMdcH5WYa0cZW9WsKYzLCqzQjw9/BTojf6URNocincDJhxqPuRxC2MzQycxAOFhhMX0LYMZrL0pqRTMh1uG518DpcuzAlhIXLzgm3Ns8Rcc/+wqXDolSVxCUCIBLhqtjF7VkrkM/Yo1XYB380y6770pk9Z09DqC1qyscjYa7Iq0A7g31ktXUdg1mO5Yw+CQM85D9HIAfXn1BW1iRkPP2/ptcFimteStLXTYZWoJTrjmcepG1j1bp9KBzUDl67RySTTLqQkQ7gpEscRCbGGY+j8+LzO4k6jbOmPq+89dO4U859eB8n8ZD6ulSdB5CkUe9+YXBxs9F7tsvf0KwIudKUyH/7YW3Ad33emD+6t1uXhB8Mb25GibliBn2LT+K0hOZZBwCIgnUFeGKvDItvRQ6G8ZhB9UWtEs6N+7ClosPz165dubMgytDDy9qvghT4hraYVTpfWHb5lsJI/CS5FulQ0gpfvYmoDOZgK0bSt1Oh+DgC5AXh5PzsdX+PLlUmX44D4rYwSlRhVAExy5od0KUz4kaWHMIxJhsxyFFEYxip9TwyEh6dkxJVnwuA7XLtp6f9nopGiY0NodfvwMOOrMV2LS3xFnrLD+APJaFAXFQR4TDQSXXKSFr4B5A7i44Baxw9aJ2uJJGGHWwfxmJcUg8X3CYMlCTfqH1Rrw25KiuPmB1Hr9T7k7VXmm99HeA0xlNwNLGNXwVkBenn9DHZAurIK9me8KO9D0C0EUh+7iMhSPA6aERTeP1C0APKslLYVdZ+qRlMMPDGjrsCgIuytCrxyB0lPmYjTe/JkWSNiFn7uW3CFqzTQBa8mHxM+znTjDqvRDB8RYWRVw18AAAYkFVNBCIRVZRAEce9Wsar8t9FAbZS2FXWW1yeWsmhXiSI+hBXjFbsTsDd/0dhw/SCixJaT378pcAdHOMHGCxSu05qfZHGkPxfBQyHReu3MMEuXW2X1sHWGo5PYhF7Lsg5RpHI/NMJW3XyUXMqGSva2BxssgUph1aH7ydBWR9O9cEs8p2axWONIhr8RJ/dFJ9A5d/vnr1xK2rV6+cHxwhG6nt6VxH2IIdLmGKHZ49CDPkxDX33O3Ms0AYKk+WYI7sZKUfWn/79LU35H31Kac9aZmisqhJlon7VHt7Ff+ARLMm4q3s3dwyGVcJcwTX2GphtKRJAjlMW9LZFLGYj7kaOFms0Pr4s7e/gMWgNg5eZc11wlqF4eE/oyn6lebm5CwiJuUgbob+yE2wR6XETqZEXuIzyt6cw+A7NkEvz+xLv8ic7N8xRyoGSPVq+FpwEIHB5GGVloGVwsNiY90Vhdk5AZzOnDGU1qoG7FjK6OmyLxKnZYQZkeeoB3+WSj+66iR6C1M9qPan8wgRK2sKV+G/j9IY50whi4ZuodPAbggZnd/v2NanaiC0v4JDNiprHSm7icQ4HERI+/vOxmFRsfuUD4HW64Vxm2xSRnDVfwzRUfa2TtbhIHPxz+czBqxXpQG4Kr67miWxRJiWjmq+ZTySSx3AKWlddG7WqDWbqXU7PIqtpawRIWt+fRayPs2ILSQ0/wtzWEpmVFLpVOGb6Xh9CFF9khUvaqNnRgMI03iJ9D9471WKOfKqWXM57Duiv8UrGQIWzYKfyzA/S5WMk/NtmcTVYBQ9sKdWGuDgmwvJzTp+Md3Iott4l1zDFFStej/uHFoblxlL+KkOs6QlJwnyzMz5tszG6zclQ2hGU4rEtVC3dh7MEdplNpJuXP2MgN+KlV7W/CZzp/1izMZbz2YEWTQx5Nvp0nJ0Oexow9H+TMbr1xE1Yjl57ilajjWANYIHFBqmGVfRVhOKnCn0PqsMPdmO2ZjxQkZsIS2vmCPN2J1mXVkTRiNyYicjIpVDHwKqUjYnosO7AQZrGL+nE1mxpeuEq1EsLKNO4qcqVN7LmIfWAFfPvoXZLOVLDP1Gc0OZMoYUr59C1ETmJBl0HIIkDkEWxyTbI4reJvj9aUQWPXfvAwRiuFrQzBAQpuL6EkWaflNIjTszMBvb49Ys+qY6kymA6GCm4vUTlBBZkLDnSxQEoczGe2q9blm83lonbxNj6Jq4CaQIprEI/q1hh5eiaO3SLYRbzVi0+6njim57yVLMwVdpp0jZ1/uyGENPPRnDE3Qm6cfV8O+Eq2U1TiEBqsp4r4sXy6srdm5YuXLv3pUrV6+pKN5V5nR5eIcw7u4LfFkB7P4w9aSODKfDvbpwDxG/Fdu1wJVcKzcLP3ySEWC9h28tWBd3RplvisZwOYzhDNCkdEBXEDXHn2ZPqLLVumw1+1c1Fh7wY4I0LG6pX129q9Ydw5b4B7LEAlj9EZzsp7IxzR/7fDci1lw0ilrgilYrNyIbX3yUdieLkPx6YnrUN9WFZkYcDmCIIrQ04+o2Qoc5rI6DK1HwOd1C9cpFSyCLwWQksVs5SGLaWrSu1OMpE0QZWUIjLNYITlFjqsZmUOq2NgOVPPntGojg3QhTLl7OBLCeI9+dfbaJ2nhrSwiUFhlOL67OovOwFZVPcnE0y85ZsqrQKkHIrjfnWAyQhTNY/Ha9PQcANtVX816fICPLVg+YwohdEA3NIT314C10B0aBjXUa4UoenfB9JgocpCVO2SiIX77vm2qNgLOI0iIcpXbSi6vNITMa+Scc9xis+IrGpQQqsyknF3HEYDWZDYC1oIr3SH68YKtbBYxGgV8uaVbuSjfvcgDhw2Ys2e/2Ocq0EYEvWYLZ+IqGjqbfd4e03O6pfA+bsIjSIkcHibxOG66uozs0igJB6afQoOCKAgB2ew6HJGIw6QEUrHXbBCk29O5owGgogHsPtSnQJ7gOXgXlCdBS4iYjrI1IG6LnSt57Jnx3hgm9zNUn5YsJWcfShqxYdvIROjtHkf9EXOVwuMvrDYDRCnXxG4GGjWW8IO8Fqd4EqykCXNGgp55g1Xs2hBCZwUrBKTAbhlRS61swK/3eO/lYr2EOslm3azA48Gu3YTRCyEqHn0UO8AOEDpuRv0uJK8FWu+4AYMwBg3BAjh5YUO6Rx8F6ywtkc3jv8VNu/5D+sBsngYgROLCzVgP3SjHZz5ob496fS3tQ+CXmsm/XYOFJq/cQsk5doNhQe1z130L0sBUFSn1F4V0loPeDXUxmzC/2jrvwq+wYPRwBfh9ka61nh9XAVSB8aBRoLHfTEGsNRfCuASd57xmomZnFNqOM+Y5UNRCywrToS3P36uEpRMy5aHQ8gSvnrgWAHeDAKhxy87CtuFZGVpm7egUwGu5G95WLDN1FzLC68Asw1mYENq138lqYQUXJRgPm4PU0e++0ZkfHzUb9U6zX8MnICgOXNUUWndLwEBCReKAncVWzAkY/pioxZK2V3QKH4N29NxuGQxHg1PXpD5qRoTks9YZHsgFTZambCA5NhWa2bE1/5Qw1UrwMg5+9+YBFRMFdsUTyT2im4rCG6uriNVCdODY4bU/YwdJC5HHgUkDWinG/QODd1YsAcw9B63a/NGxmOGVUSb27N64CiBzKARZU1/IaRYOKQrkFmI03Pk6zLaR695kc+yRVVmtYPB+jgVac0WxMAxmVG6cQOGTCkjUu0aG8pyKNOU9J9H8tDXM4PLYd8wHTwShw5OeBkRSxRaiKyeDZXwFEeixA4U7e49BMXSmWYlLd+0tpBRYZXjmhkyAoTNUBaK6taUHO4QiO3iALogmsLt6XA6v8J3kg0eFpgj4XKYl/QsYxZqrcpSuXAOaDXQBuXSaLyIqtyU26F89fiwChYA+A5TsEd5mW3pWi7t2ahffTDKy/PfOllNBh991Z+azdjYAxAvx8iZTWU4fVyLlTaG0bBZoEpxA3keFHiqJHvmhz/MWxemualgBWCVpHfz9/cRwuw+o1raSqJFTduH8KQKRdD6Bwx263je5CWkTwVOSkfzTIs38EhexTuNlzCTzlRdr+F8fZiSB2H3jgDLkqxAN5bULcIYN6cEhNLIZJc3EdAu+uWbkJQE97QBpEenmwd1wZJcAXIWr83/RdGLp2FKSsDhoAe8FOUZr8miah0SDz0l2SRcD66AupkcJR9lRNoRyuV82H4VAXcL+fzMdThNXgfSDalpAHoi2E1lykKBz0WDjppgmC012+uhCA/2BHFED3iZ/PD/b9lfa7+ZdMwtrIpYHL9+8BQKCj3QRgU1Mx704nrKSSrBbMxT8oqZPmTKFdZRNp6sFheaOstLquX2L1TBh4oP5HISCiBzat4ymwiruo2o7UxfrEQjpB4N3C/sZtAEztwQAIXPd+v31j4GLvSNzn7O0bHLj86M4xkLQFJVQt3b6+1FtXllZY0epC50Jkp3vmDHXo6JQbdJ4eocXzO7YBRAQdG+pj4BhZYqvBR0cospJ5IDFeWV+zex2Zs9TFYMBO5SYFh2BzO2v2bV8KAD3BYBskOXXyzM/Xz15+fOHChUGSCxcenh+6fvvaiXudkKQ92H4IhKoFG0p4Fy+kxbdSBDJ7YU9vWEhm913MRF6xU0jJFDKYw5pG8nsjNHn/0rQ4RgmVIwP3W4GugxZge3weSLTtKnEuTN3DIuFM8fYxi4KDd/Ml+woOgORQ8EhHAEmkte1IR/thkMxv3FESw6VGyophdoDfgM/SmS2kXdE0wIgUvxbAkupW1qwAzOT2Hrs+KANkyuAalnXdpXNnAEQOJuGByKUoKT8AE6YjZhTwohi3cN7p4svXNC3aBkkOt3cEY9rrkHWC63+4rT0Y7Aj2dIPEumn7yqpSp8tZpp2yYhg+PBPfpFFjUfnol5iF5UQ1aySC6G7esImgFQbCvzzuY56/pmAXewceHQN+DB4EULg+CQ/kqNkJWKYJrO0J5haLDkHk3e5Y/fzGxsJ5fkCWH3/7305J/u9vv2FcGg4sKNpXUcq7vNStoRmqGIbKbcMsqvVLcwqaykfLRG00lnTNbe7ylQfI6+0C8OvtASlWp9iJRVPJtcF9A7dPSrFVHoCW9UIyHkgoXwUTNALWeBsZ7/U6d9dU7FvVmF84f6l+okdnbVi2In9704Z1a8ttdW4PXyZobQEZGj5n4a0YZ5letiEbW5yidsCSiCBXuUQEHQyOAThx5eGlv2bzJ+CBJCZIjuYv3nj0KwAu2O4H7NtVeCDRVrrwaQBLTP6VBIdoc3pcLqetrHxtdXX1/h0k+3bGfllc02zjvS63kycQam8AWWbKzcLnlC1MH7Be4rjvsKpW4ytFHGPphhUADgeDPwI4/mBo4BLhRkLOkzIOsN7+x7fvHAXQ3RE8DOBAZbUaD9Rsq1kOK4BpOe+rXM2iah+lQ5CUEe/0eL3uv7pgPbyNCArCHl3MjIvDXY/ZnO7FtAGLahvehyEH6ygE0laICGreuXAegEMdQQMAHLt6+9yF/t7hBI7VpcGHZ++eJFChs6ODULVn+45yT1IeyEce0H92L56mxsrNwd4yD2PWRRQdglJEpQXIqAjujfjegA/SCqz38D2wJiGwnuKNk4igkg35eYSU9uBBDiT/j7qzgG7jysJwaBnvMpO7GI62JHdPmJlkBQtJZMvhNkW7qYPaHnfsyKVRueFy02p3VZgyqhlbzyBw7NE4VjIjO6OAoYaluU9y4KSm5OTlvD9Mxi/3zfvfvf8reu7ZV1/Z/9SHL+09rX0v7n/FvG7rAaC6z/yr25CqcUvn2LLoXGlnQj8gK3PBshnr4Uq4OH0mj78th9GBHgO/gTaR/oQhWNjwPig5rMpAJhSZzvmzZ4zGugXb7xXcf0+HlB7xuJPy+KFDOwR3/n2A2jrmnjnoA3W5tzJf+qoFizeMLJbftMBF6WBJoVeWxy9enWs6cfyLzhEPhB8zayLFV7QZBsNWzL1kojy7PSPTmTF38bSpNycrw72CIJg+0DkkoBFkMlUAVJNH3zprgc3ZnQ/ksGdmzr51pCzJxR7XNrgYvQUQIIJPlkdtsa3EhZdzOTDEnml4Mp2kGAwTcL6FlRzUZMzOmbP41tEjb4CU3iwtSKqwoOC0EWSZfPfaJctMqJy2bt1Fuy13zlq3JPvcIvFZ4c2L4upgWRItSd4w22njfj00e4CmwjD4dn+GYP3q+yZY4zoPeL8kuxoMDjILV7Zt3uxZM24dM3Xd5JvPbQ6evG7KLTdNXzR7xXxbVjb1gVZ39xJX3bmxSJIFN/EDpIulF0HWW+VQEQyFAQgR/JJ74x25DjvnYM3PuAUGM+xOxmis78FgWJvtyGMJVocRNN+2MjvLPJfNWbF82ZZZHdqybPmKHPNBPysXt+098YHwSHLhVIrVJrBGKg9VVUAxXKBKSqBaiarBmghYiUeQpamzVuIoDcfC++Uwcgb9BrYjOs7L8hyRl9ynz8/IsK1yOrM65HSaQFGiMG6vhz2FS72S4CEFcLi6NhhTjwTL4OgFnUIjkJWaoscVNVhXDwWIljxtHjZ9cb0tNO/9Y3mnDnZjWQbC9HPdBuZ8JQHLsefg1xRQq3tzFpazVioXAgQClceiqmLoQTVRYpLVe5UeB6hTlLimGbqinjjpgQCuh+u2mKYWz2DlLgLLX+A3DMH6KVjTqD/Kr+y2O05JnnxyHTQkYjEtbmiaFlcPARzd1lusigHKalXN0FBGPBpLNCTXQ3njanRkOBVex3gl0/4GbPMbkdZVzHAeD1yNkwQfAVKnqUY8BYWhNh6G8nLohUqKTRYrgip9EVRxQ9VC9RAI5PulcTgKxC1YmXPuSk5DMwPrzybIsDCXX7DstjtHU67KEqqmaykhWcfCAMdLela1tr1VXG5iVX1MVXTtLOmaWtVEi5a0dZkThxe5FO3VHszuqtW+yaSZu2ZncguWIyNjrCR4CYRPnFVq6EIWi9fUo3lQ8ma3Pnt5CQDUVzbHYga+jHNfjBI6DLgcej83wyS59RvGwRB2IVm0f3RQ8tJIPoX93LReNQRjunau8Om7ogWNqeLitzopXNsOlhyn6+XRhpoTJlZx7TzpGtY+XwAftGycPsJj4wzDO3wRrG/BMJhizqNza9DcLvu/mCv69K22htoOA8J1tLi8pPStg6f1VklJefHRUkC1N9Q1a2rU0LUvkhFXg5Wwg+R7pTUZfJKVh4Phw5gZWXgnxbdhGIznFiy7bcVWWSAQOYFcna+4oahKVai6rBxOK80UnFFLQ8WhKkWNafG4oXUiXYmF/Bbi80jT+KxZGDrMMn2tX/JEZxTWSh6FMYiSELC2N6t6J0wYuhZTo8FjhyqqI2XtJXBagZaycHVFqPkE/rmmd05VEtAjje1AfPlIloPLyn4bWNHIYgXWn/Au6LG21Xmc+n6zZL8nAKFOuaIrWVxTYqoa1YNVidrGlGqbTwT1qKrGovgXuqQqtRw2t1Cybs3k8X+hfdUyKwzEWD9WHe+YxH0rp/6ouYLfLQkEqk04usbCiJvwKEpUPUtRRaG/bRhaT6SrVREgPp+8lEc/K3Xr+Df69GV2VAhXwfQsO68HFbKPWOuronGteyFe+hl1TVSnZOUXy5gXwpvoBNgw2IwOE5tRCox4n4Fg8edjrc6wj5KEANTgQshAunqsPp0I8tYV/J3u0FuOhsEf+vVhBNbPcCBlCZ9g2Z1bZD+BSFAxNEZkJYg1IEin8Cpz7ows7Mj6/oA+/VidQX/3SnrBNYdy4JaQQI2KCyEjskLg83jkz538laxVG/AKX3RIWV0GDbAlm0ew7GYjtyxaWk5EmYFlGLFKIPnmYmiz8wZW9hoYxGy0sB8d/rpu9kouwXIukr0EKvF4j5XiSjACRJBuXeVYzdtHawkMtLBq9etLmxtuwOEvHs3RNZLbb21UdY2ddLXR6vfI6+fyVrJysm4HiwUTbhmGY3EJliPDfrckppW1KobGToamNGHJYtBze0kuHf8JK7B+BMNh0lwuwbLNXS+L0KRohsZQ8VjCVeiWMfeJM+t94Q20h7Qvq4z3QTAR6zqPhxSyX4Q63BOyLVltQPy8uaQYnbwehsOPsJowKFh0DnrkApuDPx/LnrtYxmNCxmAlLQdButXp4M0hHYnWOyuwfmiCtW7eJQUr71IZMzMkt8uViDEGKx6tqreKkjnj6+ALrORVTX3ZgNXvDzCE064Zs3VNcm8Xj7EGy9C0BhDlkRcfd8H8/AsGY3MyO7DG2fgE6ybJfeVh5mBpRuykCZYb5wQ4Up55TgFD4DtovbNIbvg2gpXBLVibLgNY+pEaIK7iZavsnPkNN+GU/S8YgfVXGAKjbdwuhQWBywSWl7ttIcY3DAX4NWOweNsVIlhLJcFrGu+XBSy/vIW3ipU7A25gE9+AWdzfSWVx87crtOfeLvtIqhmLrUVaAWK5Z+FKO3fxDVfimQ4TsH75PbgKxnJZseyrlvvKRTyD1tg7pCJ/DQ727IUAI+BrjCrW92AIBYvL+MMJsgjhoGKwBUtpLUsXpfE5Gdyd6SBYX2dWsTgFC3siT+HTe/MFrIVGhy60v8EtTcMrF/gap5j9NxgI30CwGF2CuabjY8Rdh5HkIVDRu6d3HMxBoBTl9PROL1fCaDVuCnlLfsJD+4kwCANnmIF1E4LFX8+7feWcIpn2zfSYLEPXDTpiGFWCuhKNxugUmKH3Aq54rJlsd8vm+aqdw8CZq9gcFrIBK+8SvWC6FtIhnZ4Of8UVOhTdWFPZ1BQONzVVn6w7VHtCj6Xm63tesARpzSoHf0OY42EI/KEvj2CxDwTxkfSy1mj3ZBmY4qDqzTXVkXY4W676cGWoSuspW7p6yOr1yG7+eiNxuheTjPrzDxabuUICJ1XD6GYFNKmKBWsrwgQArD5CVVRUJJKAy5JKmzEwbcbojqtYVYsFC1amg7sBsIz54+Aq+O2v+AeLTcnyuK5sVPXualWwsTJiBdgUEE2cfH6vKTDlJ/TXVgDSUFMVVZWuy1ZcMdqACNTE4nAXPTYVkcV+V8gXWJhTZz5lEUtLVWdkGfRhPVh7EqlCishbAPCWz+8vdL333gMPA6pQNEtXAUB9daPeZdmKK0oljW/gcRAzzzy1x8nCXzAB68u/g2FgzjIhPnyGAbvlfBoTeT4OhqHH8bkqURHZlKIKAHwPvvrka1C4HeDp3bt27nvxicf/tQ1gmyiKAStYw2asn6p1gpauRE9CwCdIa9H44zHrHScLf80ErK98N304zOQ0E4Quhp9LHh+ByLEjZz98G7gF1HAFTFSECwFcRBR9AHD/P/a/ZF4b/Bj4t8Mjew8ktefpV54twrolEhcGkSY0VTHi53OqRxWTq4Agjcebh/gE65p0+Eqf/izAuoJrsPDBYRqNIG0PGapisqWboolFqqq0Np6M+ClVRR4AeO/VT3ZRkna9B67t4N174O2Oq1xf3rv/nVIATxEhVvC2hVpjMSWuG+euqWprE3Ilj+RyqAnBWgKbLBjqx6pi3YNg8edjpTbR80/hXSdWaDjUqqgpxYzWRE1TixWggIiiGwAeSFH18stvH9h1P7gK4OGdB/554MyF+m8//cZ7AH6RPm2VVSTiaow6p1RxXVOjtRFcB+XJy7ERi9NQP4sVfsoErF9fkT4IlvB8L4XdlrNB8gskANDSVBdKNDcnQnUnG8p2AKT5Tao8uAK+/yKliiL08oFdD0NhITywKwlWCi5cE596FgCISALp4DUNCHROo4qpaExVmqs3AfEJ0lZeucI+I0i7Etsb2NsNfJI1f6Ms5wuIA6QVer2F6QCQhgsgXQEffvypnZQdihGCtVOEQi+8tvsMWB1//vLTH90P4PUFSCEACZ8MYZ6kHjzRXNNGwE/y86Upc1ZxyhX2GV2XNhy+zqndwF72+atmTZVknyCKxOfasaPQG0Dz030QV8D3kapUreoAax/AZx54/sDZYKFo2dq5/zlw+fwBQrYDAGmJhMPhFgKwnd4wN3YBt1zh2erNJlh/5rVisZfDkXvnkqmyJMl+j9sTCPh8/yfvrr/b1pI4gO9jhu8yk99yEifPJ3Ual5lZ0i2zFDtWmQNVHlhJ3Bc3ZWbmpn6uy0zO8u4/svzrauRyInXxnuPp/NjTBj+dyzNpAGg9d/hWfgTMPBJEsO5iy/TNuNkB1v20dWWXndqcdj6UMyYmQgAQcWZqrclfXRr8D1UVSiHDQhneYrDzLitModYuWzpsaOuvfuVkrnQ2Z589duHEgX2P5arHYe1CKpDFNYLVMWhy34qc/etfOU6TrZsoHFV//NWlNXPGRpUCcuVR3/ZtqbAspbBDF2rUWDb648kj5v7+l5uxnUw9XPB1hGUH0jjcOSyag21EExb+489Tf3XpYaSH1o8xCrs5tKDqDUX4iYT6tnxgES1di1cZ50chksPO0xlC1Rkc5w/bkIvYONSZK/oLtB2RxNzz2viZ/5izqF9dXd2fh/1j1vKooYsCb2U/rieK8BWPC1myYRUQOVOImup6rIrglpN3PMLRdBvpQAq7PP5O5vT+s0iiV42m1tYahrl8eY1qxOOqEJZS2LC05VQ4mS5kMVgVSqapVy9CM9bs8YV1A9lAC054wrqyDZ9hyDKNeuebmhOKqQtdKfQwFbU3ivFlupDF7TGFhPKRfdCMtXt9YR1Ddvp0r6xGf2E7WtHTLcFjmW5YCoOwCJZbFuRF2c+/5B/pWP/rbF/TH0msp71Pb1hHsLkd2O0N63O0YjAVDWMVpkWwvEu9S85YVqFV6EaStqh8YO07h3SKhktPWNfwGeazg2WZah8U44vfkZax+vCBRSvqJK6RDk9YdLnBxsa93rAOYzMWUJkiXqEbfSX1EHiB2hWWoDcfWMbsHv6w8ttULbbPPIz2IxqBUVF2sKqHodS7kJH8MkbMYB3YjISN6/s7h0V/4wRS5ZhUxQ5WbAaKAvn2vfJh8c9YJ7cQrKM0wfeGVYYlVTXMYIko3U1+/zUZsF768rMr+rGDBbTncPWKN6xbaF+NlewyVk3VEpRFAt6w5Ncg5QYrkcON096wDgKrUB/lB2ulAwvflAar1/OVsXYDW3Lef4fobUYThlXr3IZCJ2M1RPC6NyyZdd4LrdPc4GfCuouW6Tmc8YHlnkL3NUyLISy3pp+kzhQD/GBZBXaAPwBJHMmQmv8c1n6CtVC12MGaiMjP8X0psH6CUnwym0vGMhWlF5I4S1sJ/w2sdXlYJmdYErp/9RhrMIFl6dV93UPo/xIW3ZvpzQ9W7cf5YpEvsGsrJ2FzeS6asPnAs2Ed9oJFp4kbXFgKN1jxCRXesGQ3wrQKbA9wCla34+6zYNm44A2LLmQlQR0J2cEK5lsWviCndW+QDyy3QW0Oh/xhJabncNsP1hEk5a+VZbQs7IEyfE3Kpfc3HVgV8pqNSyg/swBJ9wXOfzrHIlhXCdYyfrDGD5QGi7rYV85iA8tt95h0Xzn7Zyx/WEc4w/qqlNcU38fPA1hay2UoNBV1of/sPX9W+LxmrMH0sFAKrG/g/XJMigo+J/jDEU7hhD+sRA7XnktY86XB+iYiFZjMCFbsY2Cz99ScYLUTLCrd4DsUDhjHNGN9JAXWt4BpmFLFZSikH94naKZrfBnPi36b0OJzH4v2sY4iif41mskMFh14leIdKbC+9z66YDifq0emovbBVuCW98XjveuQyt8g9d95N0yLJSx6Ci2luq0Li8mD1fwRfmWWxsKM9wwqm/I59qGzQglHOswz1rd/hBLU88lY7kMd7+NCYpPZ9tjzL+/bDX1Ukxksk15d0lNoGbB+Sp0w5xpMrs3ku7UvwjTPzXe3JkhLoH0LHfv4zMKa3B8KN1iiF7pIgvXyD1CMhapicYGliOgooBEbnMm5x/4oWiLIei8L6c47VmFEVLCDVVMnCxY9LCxGL0UxOf2/7I+wjZ2dZaQrp3dnYUfKI1sSTsq64rk3n6pg+ErHVMx+6ELFG16QcOn9yyhFf5PTyprKTnezsa7Dso9cndyIXCWAkNe6kGC1IQssZZexLKrF052KN0iA9cI7KMUQwQkW1YGiWdbhpxeGGWdzdC2yDcCIeeiaxg1C1ImrK+fQTJfUdHaw4nNlwaLXFP6wrEJMWRMRagFuPTnWOWUjd29EtrIcw8+vREO5jR0dZdEfHEdqGnrSiQ6z0OOL5MF6G0X4hFdlFfck+o6NjU5Tk8xj6er0ibTjqgEzDEXrg2D7dLQ9JStDf6sNSIQxnF3CoqGQMtYPviMB1gtfeIvuJtNNP0YhjDGDUJHG9QP5Att5MPsuAOmGEOaoSo0xvieCLcAFKqv8RDHuvWeA3wcxdLmqKxyHwhJ88RUpld7pbnLJrDjB4jV/j5SnsfbWo9rJB88hkKoAZqiaoC4NKxBMtOPYAaKVedj15NA6JBJBLKCfCFdYclphvokPgZlRwWaORWGascXoVpkDDuebx+07eAPIJe4Aw+OacOnNXIBgu401bftdfPk+TevobwXRIL+GETtYb+DDgAuLVeiKtggN3Wxg07ELbTvObACQq6jAikkxRae/QLJ6INyQBa63ufgOtG2jv2SHQxjs/Dws3rBk3PSrDHAsMqaZc4Dg6jTuR3Z1EKgbXavrihuWqB0zBLiTcvG1nfg8S3+p0WGFhbNrObqiVeEwlEipvObe9Av9HCP5ZX6hGZMXAF2bks2Njc3JrZVAjxF6XJiPPbxYPgcIhRttuGE3N3UD0H+iSksZnrBmoAvelwPrNUTKMJzZHItCV2rH9O2GhzHfaYWjiSfsqcbHdQDCTclsKrs1DGDFwqUiqjB1ZekxgvWBpHbjHwSKMCOqK+zCFIY6a8bQHl0RWjG1z8jZMUPoT9kzo2IS0UKopAEI9R8xRq3VKKmxz1gyLmQFSjEsqnOcrAozHq2ZPWHmzLHj1CpVF1ZHe1qVMmHx0AUAps6YIKoMhfBxDakZ66fvoZhgKRzDFEIz4rG4oVpCePwNJRZbPmZi/cpxsbgmyB7bsO5nLAnVbanSO92bWUg1/XiGLtwwfduGGdGqqOrdL4dPxqpHGHhNCqyX3kUxhtZouvfknXuYLj7dVLiHiP2TvbvqcuMIogA8o2Xeu8w0MmokS1ZWZmZGgZm1K5mZ2f7fcU204byV6+T03Pse/k53RzVVdRWbAyNY3mqZ6feq5D4spiqwYAVLhkVeOy+7jhnCUh29lsY3gcUTi7B0P28I8ebsEmHFBFZgBUsmZOFWnVdhHGCdxBbYwGryOqJBRjWeWDGA9e4jtm/DhA2sceQXcUlgMY5HWi7z+cZqCotBRim8IKw4wHpnCWu2H1twoq77qzPDE2tqAQUcV57ZwxBWY9/4/ft8vBOWchU6g71yYinCIk3CmomWrBaLPLFUQ1hej/rKQob/VxhVoUMcuRMPWDyxtlrB+n0BWBxg8cSyWli4sqfpzX9uluMby7GFhevRYQRrLGqyrxMWYWmv00lujbaeOB++sUxhRVtPTilP5GZ4YrUBWVxZ5lVIWOrLKdL4oHwVMoTVsgpZPCuxCk1Y+jsEGjvbGcJSblndLb3QfGMRlvao9wOfyoRFWPrFwmsykZuwCEu9WCidhQxh6bas5nBd5k8z7sMKjIrQAmsMqQC33zkPi7Du3QI2YswK1hwWo5ZVvrGch3XxO1Lo9JosYDXJ4ORFXBFYjOuwYAmrDdtCfOCJRVjqxcIgi+fKnzcwhNUygCwe1DUHJzOE5TeKhdIApngVMoSV6EWhMd+WISzVzsICHsnmR80TiyGsNSjg4CvCIixlWV0IsVMawPRgMYSViDoLP19ULRYyhNUUdRbiK4uFhKVeLFyfly2rpmOMPvGidR7WBLZ9xot3urAYwmoDNuEDx5Aqh7CmksjgwT3XazqEtXTmDXKGsNYOYAceug+LsM4eRojR6EM/szGkz5bus7MwFrC6zGDNSLHwfaV8n493wlIuFmZxUMaQEhZhqY8hlc5ChrC0OwsfX3DgxOIB+/+CJcVCWYbJ/1KEpZjESrGQsAhLu1iY34rLyu0UDGG1R8XC5bdFRjOENYltOXwUWIpXIUNYrckgxAe+sVyHVTp/DWlLWC0LyOKh41tPmGrp9UEU0O35VrCmB5DG3lIsioWEtcbzfSNYM4PSshobWDyxfKOaTtNQY74t31g8sbSr0NrLMBnC8leWYVZ4YhGWYqQKHeKwtKwyhKU93/bJ2buExZ8bdGF1IhdsOMNeaOdhPUIBw57dD1kd0Xxb9kLHAlaPGawmbxxbt+JjjY93wlIfnPwZVwmLsLR7ofu3hTjJD7IIS39wcogTyzyxCEt9y2oaD9iy6jiscuWAKSzfm+5DAXtjsGWVsNLo9e1gzQyigP3FMmERlvb63gze3y9X+cYiLOXPGzI4EAdYfGPZwhpGBkfd3iHA3C8X98uJlTCD5XvdyOLbnZLTsAirWNqLNAabBZbddzPu74UmrLLAmreDJd/NpFC47fp3M4T11BpWJzYCujsEOIKGV2FjLMjFesXh/yjMp2rtJrJB37R0rNrtEGjAYtxNZfk5ssFAiyGsduQXcfkdYTmdas0c1gSCzbhCWDyxfsZyihM1wnIeVhgsTBnCag1QwPNaDB7vhJVsNYQ1tYAMbsbhxOJVuGAJq2WVrNMhLMdh1U4g3JacNYS1tg873D+xCOskUnm0eU1mtcLpeVmnU7rv+pOKsHK2sGZ+QQF75Fd/lx/vhHUVn/OYtITVKxOyZE+TyyGsFwi2ot1LmMHyZPTa0deE5TysbcawVsvotdelKq9Cp2G9RLCIcUtYw8hi1yuB5W4I691tBJ/RYQnrSwRL+cRiCKsbIa6djwOsT7GGtTVIYcwS1ojA4lXoOKz67e1BCuvsYPlel+zCdL5Nh7C2BLkfsJqaEgnf9612YT6RbgpeHA7Dunv2DXIY9RrxEz/yU3n5UZvOmzNLhBUDWMNtk7NT080r92GiSRmX/yOJ39IUnVgbpE3H4RBW6dxjbAeA5MLA4Oovox0TUzOeRG5GFVOJv/+ZOqLtvTXCchvWhW/YjODGd/zK3lk4ta5tYTz48ZMPPYK2wa67u7u7u7u7u49f+TOev8fwB9ybSTklbdFkA2mTFEJgoAzSzrzslKI9oef5a/fHGJax33xr7XTtb2XkO+WjHQc70kwU/dNQZZ5QUtpRX15BVV6XBouVwvyO9HvjBQess4MB2bZjdjL1M1xV1uxoanR965+FqrihYv+O2prqqkofD1c8zmJgFcBV6HdxZhdW1CVJyWS3HwC/p66i5B+0raI0kI1N22urK3ls1Ml+vE639/7zYOX0hA/+O9gysL7AeCQSGkgk+pZ6QOWX7aQAANU7yhw+jhStIncGp755V1WaqU+7U0nJ8UNbdhXAyWfjdZabnP9g/Rm9SlTVVDU8NTEYH+4bBYCAnaJste46SDuk3NFKO1z9vt0+ABAdpJJBrJfIwCoEsC5wwJpfUAxL1xVVI1HVHBqcduEKyikewO5tRTm7VhEtgaXNNZQqPiVJIlwtzfcNDwyE4lQjM/iMgVUAqSAvU7DCiqlbjkzDAUwjxJqIJJYAyG5JbDvgIrO1KH71dS3LVLnG17sYioxNLYRVTdOIIy0aQeBn3J29x2LKE33w7G0X0R5rSjX1jBy6LEUjytDITACQZYpWTVMO9ZBiVbHLB/hTcgAAegcicwsqiRJVUaxlGSSC335zwWLK57iZx593wOqZ0Fyw1sBl6mpUn5seBwLUtfi60i1Mi/62vJ0HhJQNINAXnwxrhCg6dUFHelqmCxZzrPyfm3kVvyA4uQGstHHphEzFewE5KABV2ziPGQj6q46dAsVKAtAfn7OIpjjPWCGKgVVQevuJ+/ANMEZMfbMsw1LJQnwesEUeqG2k1e6wdrWvEuADMhBLzIYJ0U0zDZUHWPktBtanmM0KllsSFbIQOoQumQdOKT/Mjl9aBdsAodsGRqcnVKIYxgpUhelYLLzhXvwgHhYs17YUMpEA7C4Bvm2UrGxc7RDA8xLFaohouktVYYPFwHofJ3Z7gEVZsDQ1Mo4g7bSas5BVzDXUAEIwAAxMEM0ys2PFSmFh3f+6B2cFEKFgedCgk6kEIGclq5grb0nbVd+YplnugxhY7FR4AyAhTixPHCxDVeOAxGPTHcRi7mArBFFCLG6SDFYMLDZC+sjp+BXTmmV5A2HoZDDgknWQK14fKipACIromyPKcm/FwGJ67PGb38LvMbAlWLplRmdtWg1b1wZLlnAVPggBYDhM1mLFwGJgXYEeDKvWllRYBpl9EAEB1Y0rZBVz9ZUuV3FNMXRvsVNhYY2QPno5BYs61pZkUSjQLWBnpoEv5kpPgRAE4kRf210xx2Jg0aH3n7Co6DnUMcsiIQQeBA6kLcuhqx1CN+VqI5fMsdjQ+1X4M/rCSi5kWLqyCInHKY0UKncxDv9gACGyEUvmWGwgy1mF+RV6F3ICSze0qXHIvHsnn77A8oGXkFA21kEGFgPr2ccvwld0ICs3zzHIILpEtJYtR10JEvrDqqkfAVgjbNCvUBbLfYmlNFi5F8PO9CIvPojgJDH03GVGRyCfXACOxRzrFQes0RzBopY1CaToikOafyzICBFTPwJZWggSnXlnYOU7WNfgF3eENEcwLCUByY9tHNcMv4z+sJI7WK7jDcOm9wrz+8Iq02NPv5pl0s/TsmYhuu+y2iCKiEQN/cjAWkTMXwClkH0KfT1++BmDOTdKlrIwjyRO4Zp4uIZlHRlY+gxiwOt5f8Wezc3cjQ8DWxiPZTpfq56TQAwCfYclY4QCeWRg9SFWGGkzDKxTHUC8wLJ0opGMM1mWNg0J4D5CKntv5u134X7YDKxCKIWvA5InWA5RkcW4oRirYMnwcy2w0WcoK05mOF9bg6VOjeN7fPgw2zae72A98zDwOeIeJc3URgAMa4phZY6FMT84ATYSqm6tuBohW/dbpjZxyAHLjYpkymuwHn/kXPxKB7I826KebgwY7pUuQ10YRxJ7OfgdsJRlsExdGRyIUP/aCqy5B/FdIWSQsky/R1/E75HwGMiytGHERBH9sxZRLYVMQxZQy/lgY4ZyR8ugTuIAQtqWYJEx4AdceWfex3EzsG75BH/2nJsx1aFxh6wgMBOZ0pQQIAIVXDVSODSkGbpl6kSNAz3op5xt+VGhfA5bIFAQYN3vgDXjAZZDw9w4ZFkGsDQw4876tXNcJwTZ7bwUoswlgO6Y91OW3W8AUhosVgrzP4WUgmV6IGGQoT5AkuwggKAooKWD48oF/NyFaYuEZxMBdIkxyJkICI/Lr0YvAmew7V8FANbtb1+KL9BrRC0PtAzNiI8DXYGALH/Ko9XdTr4TgvgpZqb7AciBGMRZ70tkboJNBJ92nZHeV8iU55l+F+JY+BfHdK9bgaaSDp4R4fejup5y5c67084LiEk2MD/mNaBsmaZKlKF4D7pxJtuwWggJWU89jzM/BTAzqaqGdXgwVKfmLULkUVviclXM1e+lk8myHAgC0sAUMS2va/pkIZIYBbqBB9yd0HneY7Fa+OQ1eACfygCGp7wu2zjY0JhH/8pq8mKurJoamEh7+jlNNTzsStMmpucByCnej9PxMrVKpvx2rCefw5l+8N02MD7oaVqGOgAbQrmD1DJZxTvhD6I/MuUZ2kDzaoZjgOimfPv9x+P5xx/Le4Nin0K/inPO9gNCdyxtWoblMfJio6WBW1lkwtXzsBGKKh6dv2WRcKgHkJMiAKHNh3PxEP0MmpXCPAfrPnx4Mt/eAvDypxgfsQitetlflI4ihd3cClhFXFklYhhWPLAyFDLZD8TcaO9T6urrW3GcCxZT/gcZ8WfhYOMugBdtGkakalkHFQwygqCAzgxXFKySPUh6TfuZ1K7OhhwQAF/7gUb39ddxeDXvwWJ6+8mH4T8VzRx3oAUQ5CCQmNOyFERLN/sgAxVc8brV4SkE54hx2Mi22X5A4nkIO+vTISLA6bg2/8FijkXBOgn7uBKudCfA/ywBweFJhWzomywjGoEoorp41bEcxLaDTyKUFSzTVN2QSSkoADXldMlOUTF3EDgD976T/2CxSb+7zoa7b7yE4w5WI30+PHtxMEw0xTRMKz2EZVjRyVEEeGx3aFoDVr0PSfRuvqrjUKmRqemetF35ti9v2SnmtuHkD3FPAYDFotdufMkBq44romHbJfv2ZrLae0NzBiGqOxuqK4SMjUMWsKdx1bAyt6GDiEcNa8P+AaINhZYAqZsHauoz23joLdejADZAWgiTfjdfjhNRS6OJaFx7Q2eruwpHBMS+0OyQpWtRooQnBwB5Y54f7Zm2wR+EPRY1KVppczN0leiTA6OAlBKAluYMVukckZOAu1yw2L7CD/J7vOEyHIN2135ctMrqKgFekCUAWOpfHIhPL/YHQesgdrh/tc6ydkOQMTrrLqIwTdfc6B4ed8UTDwh1DZSnldq5wwXrmXx/j8X07O2PXYUTUJMGK+0tZZ3LG7ySfmQkU/Pp5LhNmclNAngZGJgzNOLICk+OLC5h2a34XeX0kWv+vA5H49wbn2Zg5T9Yd1yNE9Ye9uje3dL9NT53OWoyKdm2LSVTPNDavImr9MEQQgCQ+wdC06HpmXl3aEui/yC0V2xYSFfE1eIYnHfT44/lPVhsbubZd3EsTimhzKyiRbek1lRijVpry7JwRX+yg/b7MlYUlJKC+w9N9Fkb/rgdx+J+NvJeMANZLaUUgfVocR0HdrRXt1S2trbs2bW9LF3TspG13+33k3bMjlFzexAAqveVbV5V7p4ij8PVd9xeAGCxXZiv4DTs7eCKs22i54pLO+rLSku4wy5ZpcfJstpWrJGvuq6ieDNWFKziv7N3HlxtZEkUlhCYHC44k9UEI6k1LQTyDsI55ywEONsIkBHOOQmb/d97Cvac3oA29ntn3HXv5Bnn+c57T1W36o4hjTOlOV6FKuwN6b/f3u6zVfcPZ1jNULmG/T+muuPxeOdUe+vQrtjWV9jp3oxNIYevFQ0nFnOariCHuLisdjyO6kTR6L9N7Y0MNPT19R0aiERqULUFVv0wcng9R5+fDrAO+73l/0lCkk+PUFUrh/VQN1y8KWgAi2DdFwtp7/8G1g5n245U+b1Fx8O3L7wJNbyxvmOjC00ClmlJOTWfwtUVHa1CLjJyEhiyAVYs0ov8LO4TLB3JcjOYxH47YDUhO41rq0UFDVnaG24+FEOWnatwCNMOFnXYsQjWkW1Dlg2w9iPpbIi5QYFoyDovhiw7YE0gg1c3n/EqVBFZeME3ZJmTb274dJOLIlWAdfssXOwxD5Z0FceRwsslgqUjWe440hirswCWmBtSOHubrhkdAWAnkEbHgA2wYrvh4usWzRreWDRkpdFjAaw6SQxzcaJQUdIqZGRhGp31NsCq74SL14UqwVIBljj9RsXpZxyshlF4eLNcUnEVMrJwHS7ifTbA2jXipPBYxbgqVfpyFSlnZNAGWI1OPoNrK0UVw5s0ZH2X1Wu9NsA6KOaGd0zBVAQWDkZi5sE6IOaGu0pcM3T6vcN0Fk02wNqPhB+vSoU/CzMvTr+Y+Y7OBJJ49fQZwVIBVvk6bDj9BKxWZHCOc9BasjAXZpFBi3mwItKDVpUpR0NWCvtsgNUOD8d27kFXFW6bqoZ4e5aAtXQUHlojUTs96EsqgnQoAescPLRZAKt+Cmm81jKuyizM+Qvw8EMe14bB6u/EETwvl6qsvOsA64G/089sDzqONC6vaQnSYcjqRXgYswDWri7k8LisByyGrPrLIs1pOz0A99WARUPWa7iYGjAPVhOyM+zoKApZPQUXPbIs0vgcdCKPn1rAIljP3sBFZ79psGKy5F1RLAXBWnsDD92HzJ9Y+5BBWnrQLDdoUKl8GZ4TbxCwTM9Be3i5VOCJpQWsdfEmi+ndcKvwB3I4+7FQ4omlZPXaN2TyXYPmwRpDDi/0gEWn3xUBq9E4WHUdcHGmOEew9Gwhncyi1zhY9cNwcUIqZxpEfV55j2wWBw2DVSeZ9y4uL1cqPLFUqLgN1gGTYPm7uN9qmtEhWM6M8b3Jscigk0/h22pRUdoowUpYAKsX2SSu6gGLj/efNsZ0ZFx1Jo93bBXqAeuJHbCaseFgQc8ubg4WLhyGbHqPGgarBUln+il70Io2vctC7n2GTe91Mq6KIzfW1LyxCNaNT0gaBku+8TZkcPTWshqwaHqf30QKe6U4brgHnfLHVRWIYH08hhTaTIMVbZdWITs6msZ0HtgAK9YBF1/nBCybI/ZV8xetwaUA1eovDdZZpAwPFsou7q0edKEmWCETVbEE1qFueDilYck75Z9Ynnmw+uJwsV4u3dFxYlGVuc8X4WK3abAGR+BKbK8esAjWGQErahisXuB33NPkmiFYl2ycWE3Iz+KaIrAIVvErXHTEDIM1hEQWi6u8ChXlf71GDj31hsHaH/wcNEWw/rqLW11sL8GSxELju7jP31pmuYEnVvDmhnNLenrQVGntMtLolK0gZvOgPWyqWvLOaYrHZsHyzQ0XPxAsTaZ3G2AN7EYaJ+aCdc1QBKu+B0dwUuagA3y80zZDsPo7kcapwp1qYGBRBEtcM3Gk8VxOLFVgEax4n1mw+kaQw+Nl4UoLWATrrQWwGrvwO66US4GCRRGsXuSTMmBPsAhW0OkB01gMFCyKYMXENTMTOFgUwWrGJHCdK0EIVvArQfDnJ2sEi2AFH0vx6kagdiyKYIkdy8XL+UKwbyyKYLXBxeZt5p0QrMB3zbh4EDRYFMESO9bZD4VgK+8UwdoNFxc/0udHsEwsMSrOBQoWRbAGpvwgHV6FBCuwMlb/MFw8Z4I9wQp8O5bj4vJq6Q5PLGVGv+4Go2A1jDqegEWAaE0OOvorhXU5sSiCFaC5YZdEf73lVUiwgnYmI5/xM+UoTkIH5kzOTuKegKXlxKJK5cvmwTqIbALXtsGqVv+34c1//W+q8rt844EAW/v7q/2vqjW+kZo/4h3/jf9n/2dTrf2t6942I2GF0w6u8yrkfiwTYP1c/XwnSFE8sZox6eCJqhOLYFWOw8WU2RNrvw8WH++61nFHjYLVQrBMiGDJatvfnpY1gUWwPl6Ei7GIcbAOBwsWxZCmqEx/4dONZ8E93inmFcrO5L3I4OUtXbMUBEuie8fNg3Xulr55VYLVZuHEWuKJxRT7wMcKPbz4PKfHNkMVl29+Qgb7IlHTYF0szlX0gEWwnt14heSvD5Z1NM39iHdwN/yCP+filyfAJFrENWMPLEqBgfSngLXfKFjRMXi4RLB0GUjfw0lgiGAFKurzynvkZ3CAYAUugpXNoolgBSy+sa5hMotegkUF/KnwGzL5rkaCFbA4pLOOlDNieIvRFFx8FbuqElHVUvk5PCdudnWDgIXjApaayjvBWnsD1+xYYfRvwNIjnlin4KKn3iRY6k4sSv5Xn4aHjqCHdAgW7VgX4WEs8quDxSb0H0vFwvyDwC3vfGNRxcLSS3gYD5grgkWf39JReGgNGCy+sQjWjVfIYMJs9hfBUtjRuQ5H7FgxXoWBij3ou5hJ4EDAYLFXSJ/fd2xkcZBgBSyeWPeQCtjcQLCoSmV5HW7guRQEix2dwknk0N1vAyxVc4UE6wTSxjaQ+jmYugZWqdJc5SvSGIsFChbnCgmW3yo0DxZzMDUV3m+dRwZ7g+aKuxu4EuQhktLRMQtWG1LYnC9w24wasMpPgISBAXsuXuNU4WwXmuyAxcVrijo6V3EYjrHCu7/cNolXT9c0bU1mIHTOcOHd3/MuYFFK6qOv4aKz3zRYLUgiu/BFzYnF9IDKGXiY8uujprN0tIh5Jy9M1EeZ/sUy1lFk/F3cZvMKnzCvUM/bfQHG66MCVhNmHCzyxNID1nU402j2wTIfNk6pAOsqklkcNA5WI/IZXGFeoR6w1uE5I7sMgxWL7OpyUni8yl6hGmOy0R1G/onVF3c8rH8pESAlbiwJwUSH2TKWgNXQ7bi4LCcWpWJxw+1NuKbLWAJW/zBcvFmu6LGQMqAphVazXAm2A1uj0BV6k7W83d8jL26smGmworvh4uLHAu9CJWC9w2wWTebBirTDxbHbNcDi4rUaqlaD+zlXLU+r5jAyaPhDoTj9xuFi83ahqKDcQFWqyyeRlmnVaMT0kdUKT092L4cKP1yCi90mqw2+0y+Dhwt0+ikpYy0dRcYPsDenmBiygOtfdIDF1N6FP2ESE8KVabCGkJjB4irfWFp2Y812+RmYJq/Cg8hu4B3tDUqqDVfgAo02wGrswkN8K7OOpeJDYeE1PHQfsgFWQxw5PJeeTvivQhrei5fgGW1B++WG/k6kceoP1yykqkYWglj6UCjNwg6kcWKOe5NVbOJ+Asc3vFvo6Zy9zWahig+F97GR9fPrTfd0Uji3VCiF/Y1FVUrlLV/yoB2wWpHBp1vLBEvDlsjjyGG4Xi4q42Rtl96flIvhB4sNndsP4KLd8NvdH1ntmsX3ldCDRRXXFmaQRKvhm9CfLISH+wIWFfYPhe+wMYJmS2D1xeFiPfxvLKpUfow00GgJrPpOuDhRUFHIYsp4Gp2GXX5+spy43r8yWU7DhvcLSFl4u/sbuVPYpIdUQ909j0nskxqTBW0Xsn67EX4PKevusi/ZQt3dX+qXdPAz7B5SqvTsDTwY3wfie0ibxOp3f7UY8k+FrLt/Fs9Mz4A1sAa7HA9vV/57sGhnqRq1vBgI0Unhh7x+7FyFhzrh4mTIjTM0ZhVXF+FMosXSgSX1hg7kcPFzuI0zVOnLWzx0aoeMG0oA25wPd72BXEl5NGfD7+7fhfswCSyUQw4WZ1VfIoUxOUpsgTWEkWkshrzewDi5n5DyqI0Dy19wixzelsO+LpIjhYcdNNkEq2G09qBOWGBjB3ruBHIYbbAHlgzqcPmakg70WF0kag+syDgyOCrzFDyxwpxIYasD7ZM1Adk4s1oMNVjMv0xZe2L5gTr5WVwLtTuZVazj8OSJZRWsXSPw8HwttG8sSobr7Zn8fHfycNhNpLwJ7yKf8Ifrbb3e9yCFl0vLxdC+sRihcxk5oNdWo9Bv6iRlaDW0YNGL9fGitRloX7HIAWRncX8ltGBxVPXpNJIYt1Vs8F/vW9vXCtVKaMFi/OXDLn9U1V7tvUcsWR/nSqEFi/0cF/E+22BFpfaOTzfl9U6FtNiQwVhUnlh278KWUDtnOPj1DtmEv97dIli9DtJ4vFoM61XIvF4P6LV7E/oDFcdDWiJlrOr8A8jgl80Ty99EmsHRW4UiT6zQOhv2Wj2wfINDAni/GkqweBOu4zfLzgY/+QROCm+ZfBJKj9+Hs3D99UWWH1nd24+sEDocuGVGxijQ5jsbLD+yUjh/K4yVLIL1GIfNb5mpHYiZyP+FvavQjeQIotLxnX1SvWOm7mMY88wajpn5jMmY7TUz27uB38ofhBNRREFxmMTR7LU0ykgTzjaoWnRs+/xU/frVq1dodfEu5Ab0aGIzU1H70HuBGgwPDA0xeXfwTXg6LQykKMuaanhUx8l1FHcRCj03oRrVOY3aLg72c29rwAWURW9CHcCKSNZGUMh57w5S95moT1iq4SKMJypqVCy3SxyL1dERnBNChzqq7sJV21COG93uCQ4cMlOeNCUXvatTiem+Rq5Yju2tz0uUFM+UnLJUZ9KxJb7sHb2qwTGT9Ce7l+zHUxSPGlCu1otrK1k7UFGHGRbf3Tm5nsVlBJSSaFvECAdxDiPqLnSDY7GxYTSeotB2F645jDK8qvaOOwEsbufMoPaUrnZOPKuzA7IWLXwXunJyQ88vwyORaOdocfv5GOl1pmLx2NfjeZzGVn0iVpw6cwa31LvQAWCxiLWMQKoYP813YUUdpt25C9mTnLLvS4spa8KdNb4cilVZge1aqbvSSKvUqL0jVyGr7h6wIRGKpcmgTCHuuzFqz6p7M1CBqsScqkbvzJ2FFw74SFl1H7wLj8QuvQwrHtapAF5n+m77UYsvy3UMUaQsbKLQjQBlpu7LCJRhRj+wopmKKMSht9F68s5e9ygJhA5qL1jqMiyBDHC/n4FlfcFqQ73UrzXEO+aINza5srPeR7yp1wT6fqqaO9H2d3NakZcqHdKMkrVbUA0uWb7UnsXRoSWEKYEN+hzKFUDzYqPNHIsZVosJ4mgy6JZCTA72cMmyu5vjq2B3Y4C1dotqGP7FipX741/Jvfx57ne/qH6a/q///Y+X/ku59H8k7TNO/kryD+Vyf/1f/6tfT+5v/fVc4q8lxp8L4ZCH1yhgGYKsElCIjqhk8VVo7cIAU7o5iQUoZ3Cjm+fArE4uOhU7R43h76VC+ljub+SKZes61cKT0KSCpURSUdhf+LzRVmDxk1CYxbDirCwZqJLFx07R3byCpWIcVMmy8HDBWkG9NIxhxbt8KcRUlhuGlkb4hSQOqYJlGMsCyjmd29Iu4T1kSGxTOSDGsSwhfQxne5i827ibMFALTgwsWQcJp+F1ZblkWRgN6ZF+H1bq7GopyMdlHjG0Lsu2E6gArTevYKmSte8IKoCHPAlmmdTQuARfih2qXpmIrJ2CfFxr5Ekwu5j7fdSTIaM56WMVsh5tHPxu28hXYKI2mtgoYJlKyq6G51fgSWxbZexNqILfycddjlG2KgWk9hSwNzFBYWBjpxroZP5u01LxjBQlBtcrJTkI6XOSgz0SVnYEPok0V4NRJmVBAe4xf7dpgCLW3M3m7/VosGPXHL8Im24hlKJUf1jDX5pelR6Weiy5DPlFSOJw6mJC0+zvFKooB7MPS6MPUH3KgoswHjKsR4PxzWjGVfbROALCDuMvQnUZrj728mVoeEgIu/vmrsGTYqvZL8JEeGQ0ZZg1ejCaN4oPDiMkJY1agqxdoDww07fwzOTD2TKoJmwyWxpN+t+FDDFmtE2ZCdY8MhKbk+4+82VSD1efseZgbCtn9g48ElvWWkKw4j2GoAymFg2lWTz43BspWCnpfUb3DHeC8kCrma0dJu799xBUEjYppcGikrXqmJAZzD8ysrXDxL0FyMvktkubaNboU+NMf3wW+rvGEUpRZYmClVgLtgcgDxPmEXhuPXe/AY/EkXUWEaxEa6cyQEeW7aSGPQjnluCR+S3CdDWrFLK6NpqtYGQZhKsXzybgicL0hCJY1pWs1dsg64GZv/00zKX8srmZzLm/ngBanA+XLjQ8v4tMJaFEEXcrkXXisJAh5pvN6e2wgJVdRr422mti50WoCPzBI4I8jD1eNAVZLGC9AuSl2HbAXlwpBT5C1oVuNmeZgau+FaBeisMnrHwQxgQ+ssCDGnC7ifvRRuBqGgikOLrPZlyp3s4mEJ3DtVlGlnZcNUa4ykhxZL3duFKiQwkocjrMsgSvHVctQEiCYmuf1TQris2q83F1Tj+y+B7MSEF7FG+3H1nHISt9rllaT08BVyEJ7E4RRm0USre/rFnMs/ThaqiAKyHokHLKOIOsSh/XmgY16Vmsi0b6VUYUHFhOXIQKWQe2Q9Z5uN29uPC/diy4pZPSH+xdBoI32wUO746Ea3eQtXozSJzDhcf93JHW4Gd4MQzUv4UPPiBgxwFHSJZC1vGCnjXWVXxksf+q8Qqq8+8CwEckULXOGZqlVAcID/MzfT1FdP7xyTUONl1FUPsO3vvkY+Crdokju1UH2hFklUAID3jQ/6yYj0OWRR+PIqz8Bp99/uUXP/6Kdz+QwEmHiNbqaI2TxG/tfedXE9v7PSF2BGZjoReTUUBFwYKg3Gu7vVhQkliu10oIYu+Kiqifd7/y+v4trrz9fkrWxE8YOyYRI5mAY1leWSqy1vc8Z0CZeyEGFB00+1Y7k9mz936e88w5S4Bjto/X0Iq3GVwXv8b8HY/xoiuoRIJPnpMdAs15nwmzTCxlpVtg3XG5Alh9ynnm4xR+8XHRhrXAEo+Em61BJRxWAv4OoF0QMJXmGz4LIxw3CxC8Po/vQhW+3VDnqP2C2g1N/doNTR/imptijFfOmp3A//g8eHU9pIQZIuHgn92QdohIzR/9xaGJPRsTLRAFCQzywvk4dLFu5INWPF65WGxfXCUDT8MBJcyhRoIPb0H2iJiZPcqZRV9+USEg+mR0d9xpgeSZD2wb4aAVh6OmbtfvqFwqAfcC/ki4D0rw+nP4fCLECaOaWWSDE1IhkFw9aw0+ePIMbl8lcPRkY7yjNaJdUds2YMkfEtr+DIbf8ooHrduAVwQyqaE1elN7XhIgeh7jj45wSFFCym1ArrqAn3bX7YuL1gih1tG48SjFKy9uPQxG1HB/KP5Ah1YcjtoVaZKr/BRAkC+j5VHQr9BVhe4B0tIlOHzeaXOMUE6P2+Dm77R49ZzFdj2veIS/AUicWYmmUdq8yhAgsDYKbl/XHhy6qvudkN3/AxxgdjgCbfh4anfa1yzGfIpXHX4ttuuhqsE7nFmjcjqLbLCoGRC9XnTeCZFc9RUmrc/IDhfj4K46e9wOPzAc++o2HAH+xy2jk8erAaBGHvQyiyX4UWiD2b2p/VXrA7XfBSoh9RogLf4fLP21puHDilZcrmzOrd+j6oIMvHoSVMklojGLJuBHnQ1OotQu4fE9/198XvEH73TC6/sfYMX6D9vSisvVpqNasx1ULIUHg6oQs2QRlvwE8+iywdxp1Gt341bX3/VYVbkdShcqcfo3+wcUrbhcnfgdyyq8brTcH8QGdZrlFZE6ilZ3KBGOn6HZIE/tAzwwoXAHIJForVxfZ4/3tD5MMUhy9T//kIC7L/U2OGCCvwH4RND79qMnXhWI3AbbblBqHwhKOPjoFmX4Chxe42h8/ymteO/KaTt+CcsqvW503wjwavBdzOqAxy2ikDnMaIlX6VQN+nDzYVCNDKrFwetPe0Xr7OZGW1y03s8F7XXVq4D/+Q8vlsgG3wk1HHgKeYeASWQxo4FXec2AQHp8PagMrsfULP2zRRMt7N9Ux5Jn/GWKYf5xjibXqTWnsbRCvsLkihdLMSDi97+CxLflThwNvCqaCkFoxx9s8VOJfmHqW9H6/bi9oTZeHw7bBdf9BMyndPWcyZUSjg1K4OUtPBZg/IMEiFc5MyDuaEfn/XfrscpE6/4tQPpHJbByd6NtOPVhnFa2uurVQFWFDHTGLFccSvBhG2S+EZvJ6Lk9Pw2iR6aZxVgukETrmgyPXLEYVfv31MWpNYxwtfHcD0Cl7AVuP9Ge5iEw6w7g5jHL4Lwaz3jl82kzi7GAuqVdz8gPlwA/bjvl0qJWHDFOida4HOeX97rgrfuhQExypSsNn1LMEscZmlnmhPEWxivgNs0sxn5t4RudgPz/K4Gftta4muLUilWt9jXa1p0FKqs8QFvHdarBh4iIX7mJxyJmmRJMRvbBmVbRC1yLHtsH6Gk9eerFZamiElhx0Va/L06tmNZvGmy7jgBVlXADd1uDfr1cxWqGXVfh4/tzGzi3p4F41TE0o6cQHwh2vQJk7/aFwKrNzoZ3UitugrV7nbuPAlhihQ8v2LgbrXAMA5FgB7yigSvDxIQxU8gHiVdDvUQK8f471In/f9sBHN3tbIhuiHET3NtQfeACsH2BIMCD7o7roWESSyUzlESjnjpOR34lQ3QPj1eaH16/1wlI/3cJULF6t60hHuMHpVVNg239L4eB+QsEAILgpuSu+cRwzPA+4IaQb0TJIrYnQfB4cW14vOJNreCTa2291Ko6utvmqok3HwakVaNt99GvgCVzRCC1OQ0Qffpx0SFWhqHblN8LDSlZiQmZfB3nrp+em+FBjQSCrbfbyRD/B1i6apfdZXfEu/E6OBx2l23Xqkpge5kAqyVpbMLYdIs2SfL8ZXBYzIqEWtvghTA+IdGIJxTOJF49U/yR8PARiYRCD+/KpFrzAaw8ccZli1OrX2J32FxnTqwEMJ/UypKUw1vm46ZpL27eao2RWerfm1myiMnGkywT3/NDRmer1hcdPiJqKNSlUet/AHx7fqPLWRsPW5oH1jpdG89/CzJBoY9WiewvetVcW0frimW9Q1X9+mGtSKC1G15YcgwnWYkJBaAE+eeD9+QV+aEaZNTaAXgWU/Nh+bkNe+uZIzZ96axy2Bud1ed+BxYSrax9tOrbHGMRX/lvux98Z3GoBgJKSG8sEd5/py1KDddpmEFG+JTGFt8fihrwP3zaDQ/7DC8APxzYVeOykWx9yWJlc9VePHoaqFoyWwDS0scSrd44Bp9VsjJmXb0fVN7Fqyd3W55eD0R0KatLRg9SzAkm452nKqPluj/yF/EZnmT5Q0H/w2fwAVhYWQFgxflN9fWsRtz3xYpVw6a1ZwFUlIoAZkwq4rTST1cmATEwSw37nwN4HvFHdN/5Co8Bg8V39uZEKsgI9ZekBoIBdehNB/bLlPtPW5bhCgCrIIhlSwBc2r+ZyRZ7cr+8qZgap2vfrl8OAVhSRrSaWjCGfebcBPXz4JMAQXoXsyKBl524KuFuIKz298Ib1H4vNhqxMuiKXvnDqo5XrfefDJVZCsvurR230MspUQCDsKD8ArD4m/N7nGxk60uyxFoqA20btpFYVZWTB4rNWWai1YBvGmRwzeruisYsLk7tV7zoCKq6+N6G10g21FyWKSEvBW7gUVDR2faf3WwJKxAZWkkY6LrdBkCWegQQhLSUNCswu7QSwKED6065Gmq+DG411Tpq7a7GjVtWfw2gsnQ2YE1NGkcUShysR60xq5O6DtEy1i1IPqC/sjGOPYOEtCIjSZY5IRuQ8EzXHlH9Sguu4nlIHUp/tLeJJfdcBiAuKpw0Ib8osSgjRZOtCgAHz+2ucTk/f27tY6xqaDx1cf/vALaX8KWbqRNztXfrCNGY1fIyWtcnEmx9AVmiSKz2+85reH0ZhjpyLjEhCR4P7gQjugWoG5Db8YqcfAjDM1cBySsCSGueOC7vDXUnFFqIaaXlALavWFNt17jV9NlqlcNe73JsPvYTGMp5skqbnJ3I+wvR24nFvDa8ed2vRFscfCTBJ+EaFfH9RkmtHtp/xkBOaE7Ba7x40t/1VP/1Fshu3AtGYpWrYJivQZMFCtMKirQXqhlMXPlzJpFsWeeUkmydXrmt2l7nrGFm0fQZ1oC1tkbGqnPfWrkFLgBgnTWxKEGf2AdjVjoE62M890dbAVEe3IPbC6krFOk3lvUHegyV3hMTciyQ8DygqvohH1nmajuUAeV2nwjMnJ7PWzNmk+lNm4b9nzl7ehoAYU75duLWN9vW1zQ22Bm3Pi9W1dhce0/uOvZzFYD5mgVOSc83cbGK9YDIKzKehqJYhZaodPcsEnrYhh4kkZ8a6Ezxyz7c6x8YFfoyvd5YBUtVQmqHDJ+sLVQM8GxqslVUMM1C3CqjKhGHV/y6+0wj9SAc+/Z9BqQiA9xbZ9t0Yv9BMFSU07oN0gon5GmBPca7YZoG0eOhj16NNjbqhQzr23orEnjSideYTKpnoGaDR9/E4iWtJOGmEpNgRXr3CBEFYHLOYM+m9r05GbMEALPLuCcu/nnniU3OOqe9lpFrlPsfkyqXY/3aVT+CYXspZ9XM5oKYLFB/2NpUPsd754ESfVJGknE3pKoGJRZJZzp60NYaiPQzwnvwaQVtTDYYutMNmVxwanbUZzPRTP/KnzRVACBqnohLq9ZWO+pdthoHdeZHp1LV2NgFbFq389vDAJb1OqBl2sSxWg4YYpE+NhWijKtR2lnkfFch4erDUERnhcYZIyWCT6bs3i9NKXy+R8Jteh5isEHlKfBYECBOMr/r/CDNEhPHF3NuCWUlFSBT/HbniT12l0aukbHFppF4xb6JSLXPVl9n27h5zREuVYtLSmdbuVZNzEnQi1XszMq3UNPhxZNoG2SF7kJ+WxiSOQI9SDdMeCdiNROxXvpVnRHK7Lti6I5qO0fuoHQ1izX/Yng6iVtct2ZZAFgXzOX9LRz65ty6TayhaLPXErtGhVDV1mik+m3V7yCpKi8tmw2G1MLMscNklcasCYDWdIhEaTkA0tvbRu2hHR5MNBSxCvWKpTAjdPuAOzEYoao+uN8JyS0C6WZ97++d3DLlTGxOg1YoloPw48pz6/bUNLicnFyGbXM1cVLZnK56+6Zda1Ytr+JZfd5cLlVCSlJW7vBZRTDxNTZBitZ04IXhYzfdpLehi69CG2rY/TU63ywLRjQj5MEwhnh1Tzs2KC1raKfo9Qb8ognTFwlgWFCquSIOrdi5tfrUXpeLpIvoZThKsZ46y+nOk9Vbjq28BMKF0tIyfhVp0zLyzcNlle5hT3pX04GWnX1vFngj/pcvIGHGGEM1SIvRw1cK+01geNHy8t1Dykog/FTbvTd5rF6uYtethLz8jGlp3EmYK5ZbwXD6p9XbLu5x1DcyY6wxCLs0StXYnI2uvWf2rFuz+qfTIGwvnztnIRgsU9MnFGmkeu8Ancgnet0edAy+vy1RqR3/fRhSehvvbj6cbKzp0Stu3Agqb8zao5+hGdznX76CxysCSax9PzzR7xWurPRZM8FgnT23fPsyEL4/+8tvu/Y4bHWNDbaa2jPcG5s+jUrVOs449tmd9S6X/VT1xTUHfv4eBOv2eaW8/oO4aHpBTmIvqz7Q6GUKxCh5hMzvKSQfo16k791CK22UZaiNQATra9zmvVBNU+VYKkKK7bcgu0UIBe9xmKyJhIswdkIvubBgbmlpFTgO/Xx0zYnqTba9dS6nzU6q8fH0q/dPYypla6xrtJ3ZsPv8sSMHT4OjqrR07mwQLCnTC7RlUVN0Vg2r6eCjls/g8b1d6zUqD/jb0FPNxlKsMamQcEtrhqrBa5BjqQhVlY6ooEOKU8dT3Hy/nGfWkgkjV3IaNF8sK5lXAY6vln/zy9otGzbta2hwNTo1dxyhvgTxad8+B0eNjXyvvsG+cc9FRqmfv17ap1MlZQs0VU2blZSZo5HKPExSRW86SGjrGqRRqoYjN9FOGSairUoLyDSSYGn9ht6Qpb3vIXu4MUYFHeji0077HEa8iuKKCUXZGYWLLCAILHWVVFjBcfrSiqPntlysPnnGVudyNe618Ya3Jir7CMNmEoH8jkBLl3ZbQ6PLVWc7dbL64pZzB1Yu/xoalpaWl5fNtmpCxYaCsotMeqX60EttEB6j8+Eg90KhTRse42lI4XM0xttxxkyv6GjmxwVL0s9m6aE7gopie+GHO5+YXFF75PJyJhRPmyL2adfcktKKZdDww/Kfjx779cTu9RsZAerq6uqdTptNM663qGV6xhyziUHrbTZR74L/P0UmBscbaNJH8sRCVF1dg93OTG/z1nM7V/20/Af0ooq589yypX2cai6ewIVKI5VppPbaL6B21qDM4uU7++EnDx62GHKPrMSEojS8RndrQFVpxUl+91qOElDvakebpRMxP+znae7tso4Zl1ncvGgmoKX6OXPnfbXkAvpwePm3K47+uu38xeoNezbaGS32ukjIGpw2DrvdXlM7IPaxH7Jp2FvvYsrUyKm5cc+G6l3Hf1uzf+XZnw6Vow+Lt8+bV1qmRXTAmjZ18qSsN5wi+xvRRtCkaMxSw4HnaHfjxsNOSIJgkOao3gynQ6TlAYX3Rtt5cyTqKk7wyTM65tPKLmYkrsakmYumXVkZ05NnWKBhIZljSekcqxV9+Or0oYPfHFn9y7G1W7eeuLi5etOmTRtPnjyzz8Ha+H9HvWsvy1AnT25kP23P7l0ntmzdum3ngVVHvvnu0OnDeAOrtay0pKR87oKFQN+IdXN6wfiixDfGPWKk0s/9Cb3MUgdqZf0Jqxud3ZxXSfQLDLdBpJWvQ4cU6mG9o+dOsb3rBSQ6mDhr5NY8TZoxahjD6JU0rU+9YF24eA7zR3bnt1dBj4ofDv3446Xvvvt5xdmVBxh+0YG+5+iKFWcPfrf80o8/fv+VFXpcqGS0LSmdO2fO0mVWaLBMSZ4+KXN8kbkfpUwf7SSHJM6s7vtvj8nSTWPSAdFkHYKhBmZ08V2U8dz/gEX39ujjfRTb7/wX7VYRU8aN+M71Js0ZNeSNHZ85afq0Raki3kCYTRSbN29eeUnVhcVWDBULL1yoKClnv75kbtkccrw3sKSmTCNGjR3z5j7rve/jMGs6BOEx2m8EBxhWJoPxXGbWAdKrREPuESlA8DFm3YGbXoiORItXfh7bBSTnfqxrMSX2dx5z0bjsgknTm6fOSLOgH5YtXDh7wRyWsktJdUo0lOpQokMpo9LshQt1bBRnpi5KLkzPyMwel/v2RWW9TH1cZqVrpzlcC4cU9W/7RnUAHqsIZBiSV6RZSRCveHDrJnyXozXd1Qh123lsn54YPbaPhDfqkk1iHmPYhInFSYXJU6ekWSwCBoBVBwwEwWJJnTI1uXB6cUZmVn7OGPNfGa2n1EdnVjEgyPysd78S6UercPD6bcAjAIuyDcorapIuYsySAbcPna20Hj3o0Uwt8LpFYNKnuhbil/kvnmQekzt23PiszIKMSelJkwubk5OnpqQsmsGQNrM/Utn3TElJSZmVnFxYmJRUPGliwYTs8ePG5hKb+iFR+yNMxjgxayIgur18W2V/RImoDAq7E346cMZDNpjHI4lBmTWWtjt57YWXT9AMNtPn7/BA2iFi5oRPxCu9gA0uKIwYebljGN90KBrDkGc2D8pYAhHKWAk4a6a2M9utGy+DwYDf7w8Eg+r95+ALalb9gpoBNauZW8cVmuNXBpGr1lcUr6xIyTHQM2IicFKYGYhosRPTTCAqEYx7KmnOLO1wbry4faf15cuXTx513IRWDaZm8wU1Yx9SOGtGGqxedLO+w0Cb9flvdIOXIJMNrL0aZzgSB4apFwmjBizNFgsQRMkNoO1FS0snAG28srmI3wqDM8s0pigFAq3o+JW/by/aRXJ1RYDIu6JxfNx7M34WAM9r+Qo4vK97BCCV26DRwRU1CxBocpGYpStsX167Cp9XBFLy47z6FPfGlJkChj96XjO4BQBpxbmj5FYw86C+g+cKnvpDVH5Qm12NRPwPrt97AUh/iED6p7LBuGiZsyanog+WWRlEq9FyK0z8dUn3FbxqfRDS9vTzB4Mvb9wEpJ5P2TGJgxtKbhZbemC9kuJM7X3z0fRg0OSix4vujtZwgIrb64+utQBeWQQsxXmf7mLi0L/6OtruBKttGbMEGWh7dvvevduvWgC4ZVEAmsfF5eqTZxWT/n9GFbPGplDXREYfpNceAFOzjGDpcZg4RmdMzEsCIPY8lrxeqV3iFUhKgfn95SqOeNekmdhkvXwZhJnNE8zvLVdxxEEUGkd7K1j5K3N8IwLzF0WrOP4Xi0ZdFDpyBK8AAAAASUVORK5CYII=;" vertex="1" parent="1">
          <mxGeometry x="480" y="140" width="44.06" height="60" as="geometry" />
        </mxCell>
        <mxCell id="PjXq0stKhjiPxpjEcOcD-11" value="API REST Full" style="text;html=1;strokeColor=none;fillColor=none;align=left;verticalAlign=middle;whiteSpace=wrap;rounded=0;" vertex="1" parent="1">
          <mxGeometry x="510" y="200" width="96" height="30" as="geometry" />
        </mxCell>
        <mxCell id="PjXq0stKhjiPxpjEcOcD-12" value="Directory and file management" style="text;html=1;strokeColor=none;fillColor=none;align=left;verticalAlign=middle;whiteSpace=wrap;rounded=0;" vertex="1" parent="1">
          <mxGeometry x="510" y="230" width="170" height="30" as="geometry" />
        </mxCell>
        <mxCell id="PjXq0stKhjiPxpjEcOcD-14" value="Web Server" style="text;html=1;strokeColor=none;fillColor=none;align=left;verticalAlign=middle;whiteSpace=wrap;rounded=0;" vertex="1" parent="1">
          <mxGeometry x="510" y="260" width="170" height="30" as="geometry" />
        </mxCell>
        <mxCell id="PjXq0stKhjiPxpjEcOcD-15" value="CLI (optional)" style="text;html=1;strokeColor=none;fillColor=none;align=left;verticalAlign=middle;whiteSpace=wrap;rounded=0;" vertex="1" parent="1">
          <mxGeometry x="510" y="290" width="170" height="30" as="geometry" />
        </mxCell>
        <mxCell id="PjXq0stKhjiPxpjEcOcD-17" value="" style="rounded=1;whiteSpace=wrap;html=1;fillColor=none;dashed=1;" vertex="1" parent="1">
          <mxGeometry x="80" y="160" width="210" height="250" as="geometry" />
        </mxCell>
        <mxCell id="PjXq0stKhjiPxpjEcOcD-16" value="" style="shape=image;verticalLabelPosition=bottom;labelBackgroundColor=default;verticalAlign=top;aspect=fixed;imageAspect=0;image=https://cdn4.iconfinder.com/data/icons/logos-3/600/React.js_logo-512.png;" vertex="1" parent="1">
          <mxGeometry x="80" y="120" width="70" height="70" as="geometry" />
        </mxCell>
        <mxCell id="PjXq0stKhjiPxpjEcOcD-18" value="Admin UI" style="text;html=1;strokeColor=none;fillColor=none;align=left;verticalAlign=middle;whiteSpace=wrap;rounded=0;" vertex="1" parent="1">
          <mxGeometry x="100" y="190" width="170" height="30" as="geometry" />
        </mxCell>
        <mxCell id="PjXq0stKhjiPxpjEcOcD-19" value="Helm commande cheatsheet" style="text;html=1;strokeColor=none;fillColor=none;align=left;verticalAlign=middle;whiteSpace=wrap;rounded=0;" vertex="1" parent="1">
          <mxGeometry x="100" y="215" width="170" height="30" as="geometry" />
        </mxCell>
        <mxCell id="PjXq0stKhjiPxpjEcOcD-20" value="Show Helm package info" style="text;html=1;strokeColor=none;fillColor=none;align=left;verticalAlign=middle;whiteSpace=wrap;rounded=0;" vertex="1" parent="1">
          <mxGeometry x="100" y="245" width="170" height="30" as="geometry" />
        </mxCell>
        <mxCell id="PjXq0stKhjiPxpjEcOcD-21" value="" style="shape=image;html=1;verticalAlign=top;verticalLabelPosition=bottom;labelBackgroundColor=#ffffff;imageAspect=0;aspect=fixed;image=https://cdn1.iconfinder.com/data/icons/unicons-line-vol-3/24/docker-128.png" vertex="1" parent="1">
          <mxGeometry x="250" y="90" width="50" height="50" as="geometry" />
        </mxCell>
        <mxCell id="PjXq0stKhjiPxpjEcOcD-22" value="" style="endArrow=block;startArrow=block;html=1;rounded=0;exitX=1;exitY=0.25;exitDx=0;exitDy=0;entryX=0;entryY=0.5;entryDx=0;entryDy=0;strokeWidth=2;endFill=1;startFill=1;" edge="1" parent="1" source="PjXq0stKhjiPxpjEcOcD-17" target="PjXq0stKhjiPxpjEcOcD-10">
          <mxGeometry width="50" height="50" relative="1" as="geometry">
            <mxPoint x="380" y="180" as="sourcePoint" />
            <mxPoint x="430" y="130" as="targetPoint" />
          </mxGeometry>
        </mxCell>
        <mxCell id="PjXq0stKhjiPxpjEcOcD-23" value="HTTP" style="edgeLabel;html=1;align=center;verticalAlign=middle;resizable=0;points=[];" vertex="1" connectable="0" parent="PjXq0stKhjiPxpjEcOcD-22">
          <mxGeometry x="-0.2058" y="3" relative="1" as="geometry">
            <mxPoint x="24" y="-8" as="offset" />
          </mxGeometry>
        </mxCell>
        <mxCell id="PjXq0stKhjiPxpjEcOcD-25" value="" style="endArrow=block;startArrow=block;html=1;rounded=0;entryX=0.5;entryY=1;entryDx=0;entryDy=0;endFill=1;startFill=1;dashed=1;strokeColor=#808080;" edge="1" parent="1" source="PjXq0stKhjiPxpjEcOcD-8" target="PjXq0stKhjiPxpjEcOcD-10">
          <mxGeometry width="50" height="50" relative="1" as="geometry">
            <mxPoint x="380" y="180" as="sourcePoint" />
            <mxPoint x="430" y="130" as="targetPoint" />
          </mxGeometry>
        </mxCell>
      </root>
    </mxGraphModel>
  </diagram>
</mxfile>
